<svg width="100" height="100" xmlns="http://www.w3.org/2000/svg">
 <g>
  <title>background</title>
  <rect x="-1" y="-1" width="102" height="102" id="canvas_background" fill="none"/>
 </g>

 <g>
  <title>Layer 1</title>
  <path d="m82.2222,37.54419c0,0 0,-0.21632 0,-0.21632c0,0 0,0 0,-0.21633c0,0 0,-0.21633 0,-0.21633c0,0 0,0 0,-0.21633c0,0 0,-0.21633 0,-0.21633c0,0 0,0 0,-0.21632c0,0 0,-0.21633 -0.21633,-0.21633c0,0 0,0 0,-0.21633c0,0 0,0 -0.21633,-0.21633c0,0 0,0 -0.21633,0c0,0 0,0 -0.21633,-0.21633c0,0 0,0 -0.21632,0c0,0 0,0 0,0l-29.63694,-19.68584c-0.86531,-0.64899 -2.16328,-0.64899 -3.02859,0l-29.63693,19.68584c0,0 0,0 0,0c0,0 0,0 -0.21633,0c0,0 0,0 -0.21633,0.21633c0,0 0,0 -0.21633,0c0,0 0,0 -0.21632,0.21633c0,0 0,0 0,0.21633c0,0 0,0.21633 -0.21633,0.21633c0,0 0,0 0,0.21632c0,0 0,0.21633 0,0.21633c0,0 0,0 0,0.21633c0,0 0,0.21633 0,0.21633c0,0 0,0 0,0.21633c0,0 0,0.21632 0,0.21632c0,0 0,0 0,0.21633c0,0.21633 0,0.21633 0,0.43266l0,19.68584c0,0.21633 0,0.21633 0,0.43266c0,0 0,0 0,0.21633c0,0 0,0.21633 0,0.21633c0,0 0,0 0,0.21632c0,0 0,0.21633 0,0.21633c0,0 0,0 0,0.21633c0,0 0,0.21633 0,0.21633c0,0 0,0 0,0.21633c0,0 0,0.21632 0.21633,0.21632c0,0 0,0 0,0.21633c0,0 0,0 0.21632,0.21633c0,0 0,0 0.21633,0.21633c0,0 0,0 0.21633,0.21633c0,0 0,0 0.21633,0c0,0 0,0 0,0l29.63693,19.68585c0.43266,0.21632 1.08164,0.43265 1.5143,0.43265c0.43265,0 1.08164,-0.21633 1.51429,-0.43265l29.63694,-19.68585c0,0 0,0 0,0c0,0 0,0 0.21632,0c0,0 0.21633,0 0.21633,-0.21633c0,0 0,0 0.21633,-0.21633c0,0 0,0 0.21633,-0.21633c0,0 0,0 0,-0.21633c0,0 0,-0.21632 0.21633,-0.21632c0,0 0,0 0,-0.21633c0,0 0,-0.21633 0,-0.21633c0,0 0,0 0,-0.21633c0,0 0,-0.21633 0,-0.21633c0,0 0,0 0,-0.21632c0,0 0,-0.21633 0,-0.21633c0,0 0,0 0,-0.21633c0,0 0,-0.21633 0,-0.43266l0,-19.68584c0,-0.21633 0,-0.43266 0,-0.64899c0,0 0,0 0,0zm-32.4492,16.87358l-9.95109,-6.48983l9.95109,-6.48984l9.95109,6.48984l-9.95109,6.48983zm-2.81226,-17.95521l-12.11437,8.00413l-9.73476,-6.48984l21.84913,-14.49397l0,12.97967l0,0.00001zm-17.08991,11.46538l-6.9225,4.75921l0,-9.3021l6.9225,4.54289zm4.97554,3.24492l12.11437,8.00413l0,12.97968l-21.84913,-14.49398l9.73476,-6.48983zm17.73889,8.22046l12.11437,-8.00414l9.73476,6.48984l-21.84913,14.49398l0,-12.97968zm17.08992,-11.46538l6.92249,-4.75922l0,9.3021l-6.92249,-4.54288zm-4.97555,-3.46125l-12.11437,-8.00413l0,-12.97968l21.84913,14.49397l-9.73476,6.48984z" fill="#988a4d" id="wtf"/>
  <path d="m49.88799,1.44356c-26.84629,0 -48.44443,21.59814 -48.44443,48.44443s21.59814,48.44441 48.44443,48.44441s48.44441,-21.59813 48.44441,-48.44442s-21.59813,-48.44442 -48.44442,-48.44442l0.00001,0zm0,86.79626c-21.19444,0 -38.35184,-17.1574 -38.35184,-38.35183s17.1574,-38.35184 38.35184,-38.35184s38.35183,17.1574 38.35183,38.35184s-17.1574,38.35183 -38.35183,38.35183z" fill="#988a4d" id="svg_1"/>
 </g>
</svg>