<?xml version="1.0" ?><!DOCTYPE svg  PUBLIC '-//W3C//DTD SVG 1.1//EN'  'http://www.w3.org/Graphics/SVG/1.1/DTD/svg11.dtd'><svg enable-background="new 0 0 64 64" height="64px" id="Codepen.io" version="1.1" viewBox="0 0 64 64" width="64px" xml:space="preserve" xmlns="http://www.w3.org/2000/svg" xmlns:xlink="http://www.w3.org/1999/xlink"><linearGradient gradientTransform="matrix(1 0 0 -1 -822 -1026)" gradientUnits="userSpaceOnUse" id="Circle_Shadow_1_" x1="886.001" x2="854.0002" y1="-1089.8262" y2="-1057.8254"><stop offset="0.3163" style="stop-color:#FFFFFF;stop-opacity:0"/><stop offset="0.3508" style="stop-color:#E9E9E9;stop-opacity:0.0504"/><stop offset="0.4543" style="stop-color:#ACACAC;stop-opacity:0.2018"/><stop offset="0.5572" style="stop-color:#787878;stop-opacity:0.3523"/><stop offset="0.6569" style="stop-color:#4D4D4D;stop-opacity:0.4981"/><stop offset="0.7528" style="stop-color:#2B2B2B;stop-opacity:0.6385"/><stop offset="0.8441" style="stop-color:#131313;stop-opacity:0.7719"/><stop offset="0.9286" style="stop-color:#050505;stop-opacity:0.8956"/><stop offset="1" style="stop-color:#000000"/></linearGradient><polygon enable-background="new    " fill="url(#Circle_Shadow_1_)" id="Circle_Shadow" opacity="0.2" points="64,63.827 64,29.886   48.971,14.856 15.029,48.798 30.059,63.827 "/><circle cx="32" cy="31.828" fill="#232323" id="Circle" r="24"/><g id="wtf_shadow"><g><g><g><defs><circle cx="32" cy="31.827" id="SVGID_1_" r="24"/></defs><clipPath id="SVGID_2_"><use overflow="visible" xlink:href="#SVGID_1_"/></clipPath><linearGradient gradientTransform="matrix(1 0 0 -1 -822 -1026)" gradientUnits="userSpaceOnUse" id="SVGID_3_" x1="887.5068" x2="852.5355" y1="-1104.2344" y2="-1043.6622"><stop offset="0.5561" style="stop-color:#000000;stop-opacity:0"/><stop offset="1" style="stop-color:#000000"/></linearGradient><path clip-path="url(#SVGID_2_)" d="M78.988,59.088c-0.002-0.02-0.008-0.036-0.01-0.056      c-0.006-0.036-0.017-0.072-0.021-0.107c-0.006-0.021-0.014-0.041-0.021-0.063c-0.01-0.028-0.021-0.063-0.033-0.094      c-0.008-0.021-0.019-0.043-0.024-0.063c-0.017-0.028-0.024-0.059-0.045-0.086c-0.015-0.021-0.021-0.04-0.036-0.061      c-0.021-0.025-0.035-0.055-0.059-0.078c-0.014-0.021-0.024-0.037-0.043-0.059c-0.021-0.021-0.043-0.047-0.063-0.068      c-0.02-0.019-0.031-0.033-0.051-0.049c-0.004-0.006-0.01-0.009-0.014-0.013c-0.017-0.019-0.028-0.028-0.043-0.047      c-0.02-0.019-0.032-0.032-0.051-0.048c-0.004-0.006-0.011-0.01-0.015-0.014c-0.017-0.016-0.026-0.029-0.043-0.047      c-0.019-0.017-0.032-0.033-0.051-0.048c-0.005-0.004-0.009-0.007-0.015-0.011c-0.015-0.016-0.026-0.031-0.041-0.047      c-0.021-0.018-0.035-0.033-0.053-0.049c-0.007-0.006-0.014-0.012-0.021-0.021c-0.012-0.013-0.021-0.024-0.034-0.038      c-0.019-0.018-0.032-0.031-0.052-0.05c-0.006-0.005-0.012-0.01-0.019-0.017c-0.013-0.016-0.024-0.026-0.038-0.043      c-0.018-0.016-0.033-0.03-0.051-0.049c-0.004-0.004-0.009-0.008-0.014-0.01c-0.014-0.017-0.027-0.031-0.043-0.048      c-0.02-0.017-0.032-0.032-0.051-0.049c-0.006-0.005-0.014-0.011-0.02-0.015c-0.014-0.016-0.023-0.028-0.038-0.043      c-0.019-0.019-0.03-0.033-0.051-0.05c-0.007-0.005-0.015-0.011-0.021-0.016c-0.013-0.015-0.022-0.027-0.037-0.042      c-0.019-0.02-0.031-0.033-0.051-0.049c-0.004-0.006-0.01-0.008-0.014-0.014c-0.016-0.016-0.027-0.029-0.043-0.047      c-0.018-0.017-0.033-0.033-0.051-0.049c-0.006-0.005-0.012-0.01-0.019-0.016c-0.015-0.014-0.024-0.027-0.039-0.041      c-0.019-0.018-0.03-0.033-0.05-0.049c-0.007-0.006-0.014-0.013-0.021-0.017c-0.014-0.016-0.023-0.026-0.035-0.041      c-0.021-0.019-0.034-0.032-0.053-0.051c-0.006-0.005-0.014-0.011-0.02-0.017c-0.014-0.016-0.025-0.026-0.037-0.041      c-0.018-0.018-0.033-0.032-0.051-0.051c-0.004-0.004-0.01-0.006-0.014-0.01c-0.015-0.018-0.027-0.031-0.043-0.047      c-0.02-0.018-0.033-0.033-0.052-0.049c-0.004-0.004-0.011-0.008-0.015-0.012c-0.016-0.017-0.026-0.03-0.042-0.047      c-0.019-0.018-0.031-0.033-0.052-0.05c-0.006-0.004-0.014-0.011-0.02-0.016c-0.013-0.015-0.023-0.027-0.037-0.042      c-0.019-0.018-0.033-0.033-0.051-0.049c-0.006-0.006-0.013-0.012-0.02-0.018c-0.012-0.014-0.023-0.025-0.037-0.041      c-0.019-0.018-0.033-0.033-0.051-0.051c-0.004-0.004-0.011-0.008-0.015-0.012c-0.016-0.016-0.026-0.029-0.043-0.045      c-0.019-0.019-0.032-0.033-0.052-0.049c-0.004-0.004-0.01-0.008-0.014-0.013c-0.016-0.017-0.027-0.028-0.041-0.045      c-0.02-0.019-0.033-0.032-0.053-0.05c-0.006-0.006-0.012-0.012-0.018-0.016c-0.014-0.016-0.025-0.027-0.039-0.043      c-0.02-0.018-0.033-0.032-0.051-0.049c-0.006-0.004-0.01-0.01-0.016-0.014c-0.016-0.016-0.027-0.029-0.041-0.045      c-0.02-0.018-0.033-0.033-0.052-0.049c-0.005-0.006-0.011-0.01-0.019-0.016c-0.014-0.015-0.024-0.027-0.039-0.043      c-0.018-0.018-0.031-0.033-0.051-0.05c-0.006-0.004-0.014-0.011-0.02-0.015c-0.012-0.016-0.023-0.028-0.037-0.043      c-0.02-0.018-0.033-0.032-0.051-0.049c-0.006-0.006-0.014-0.012-0.02-0.016c-0.013-0.016-0.023-0.027-0.037-0.043      c-0.019-0.018-0.033-0.033-0.051-0.049c-0.007-0.004-0.011-0.008-0.018-0.014c-0.014-0.016-0.025-0.029-0.041-0.043      c-0.018-0.021-0.032-0.035-0.051-0.051c-0.006-0.006-0.014-0.011-0.02-0.017c-0.014-0.015-0.021-0.026-0.037-0.041      c-0.02-0.019-0.033-0.032-0.053-0.05c-0.004-0.006-0.01-0.01-0.016-0.016c-0.014-0.014-0.023-0.027-0.039-0.043      c-0.018-0.018-0.033-0.031-0.051-0.049c-0.006-0.006-0.013-0.01-0.019-0.016c-0.015-0.014-0.024-0.027-0.039-0.043      c-0.019-0.018-0.032-0.033-0.051-0.049c-0.007-0.006-0.013-0.012-0.019-0.016c-0.014-0.015-0.025-0.027-0.037-0.041      c-0.02-0.019-0.033-0.033-0.053-0.052c-0.006-0.004-0.012-0.01-0.02-0.015c-0.012-0.016-0.023-0.028-0.037-0.043      c-0.018-0.018-0.033-0.032-0.051-0.049c-0.006-0.006-0.014-0.01-0.02-0.016c-0.013-0.016-0.023-0.027-0.037-0.043      c-0.019-0.018-0.033-0.033-0.052-0.049c-0.004-0.004-0.01-0.008-0.015-0.012c-0.016-0.016-0.026-0.029-0.043-0.047      c-0.02-0.017-0.032-0.033-0.051-0.049c-0.006-0.006-0.012-0.011-0.018-0.015c-0.014-0.017-0.025-0.028-0.039-0.043      c-0.02-0.019-0.033-0.033-0.051-0.049c-0.006-0.005-0.012-0.009-0.016-0.015c-0.017-0.016-0.025-0.029-0.041-0.043      c-0.021-0.02-0.033-0.033-0.051-0.051c-0.007-0.006-0.013-0.01-0.019-0.014c-0.013-0.016-0.024-0.029-0.039-0.043      c-0.019-0.02-0.033-0.033-0.052-0.051c-0.004-0.004-0.01-0.008-0.014-0.012c-0.016-0.017-0.027-0.029-0.041-0.047      c-0.02-0.017-0.033-0.031-0.053-0.05c-0.006-0.004-0.012-0.008-0.018-0.015c-0.014-0.014-0.025-0.026-0.039-0.043      c-0.018-0.016-0.033-0.032-0.051-0.049c-0.006-0.004-0.014-0.01-0.021-0.016c-0.012-0.014-0.022-0.027-0.037-0.043      c-0.018-0.018-0.032-0.031-0.051-0.049c-0.006-0.004-0.011-0.008-0.017-0.014c-0.015-0.014-0.026-0.027-0.041-0.043      c-0.02-0.019-0.032-0.033-0.051-0.051c-0.008-0.004-0.014-0.011-0.02-0.017c-0.014-0.015-0.023-0.026-0.037-0.041      c-0.02-0.019-0.033-0.033-0.051-0.049c-0.006-0.007-0.012-0.011-0.018-0.015c-0.015-0.016-0.025-0.028-0.039-0.043      c-0.019-0.02-0.033-0.033-0.052-0.05c-0.006-0.007-0.012-0.011-0.018-0.015c-0.013-0.016-0.025-0.028-0.039-0.043      c-0.019-0.018-0.033-0.033-0.052-0.051c-0.004-0.004-0.01-0.008-0.015-0.012c-0.015-0.017-0.026-0.029-0.04-0.045      c-0.02-0.019-0.033-0.033-0.053-0.052c-0.006-0.004-0.012-0.01-0.02-0.015c-0.013-0.014-0.023-0.028-0.037-0.043      c-0.019-0.016-0.033-0.032-0.051-0.049c-0.006-0.004-0.015-0.011-0.021-0.015c-0.013-0.015-0.022-0.028-0.037-0.044      c-0.019-0.016-0.032-0.031-0.051-0.049c-0.007-0.004-0.011-0.008-0.017-0.014c-0.016-0.015-0.026-0.027-0.041-0.043      c-0.02-0.019-0.033-0.033-0.052-0.051c-0.007-0.005-0.013-0.011-0.019-0.017c-0.014-0.015-0.024-0.026-0.037-0.041      c-0.02-0.017-0.033-0.033-0.053-0.049c-0.004-0.005-0.01-0.011-0.017-0.015c-0.014-0.015-0.024-0.028-0.038-0.043      c-0.019-0.02-0.033-0.033-0.054-0.05c-0.006-0.007-0.013-0.011-0.019-0.017c-0.012-0.016-0.024-0.026-0.037-0.041      c-0.019-0.018-0.032-0.033-0.051-0.049c-0.004-0.006-0.011-0.01-0.015-0.014c-0.015-0.017-0.026-0.029-0.041-0.046      c-0.019-0.018-0.032-0.032-0.052-0.049c-0.006-0.006-0.014-0.012-0.02-0.017c-0.013-0.014-0.023-0.026-0.037-0.043      c-0.019-0.017-0.033-0.032-0.051-0.049c-0.007-0.004-0.013-0.011-0.021-0.015c-0.013-0.015-0.023-0.028-0.037-0.043      c-0.019-0.017-0.033-0.032-0.052-0.05c-0.006-0.004-0.012-0.008-0.016-0.014c-0.016-0.017-0.027-0.027-0.041-0.045      c-0.02-0.017-0.033-0.031-0.052-0.047c-0.005-0.007-0.011-0.011-0.017-0.015c-0.014-0.017-0.024-0.028-0.039-0.045      c-0.021-0.017-0.033-0.033-0.053-0.049c-0.004-0.007-0.011-0.011-0.017-0.015c-0.015-0.015-0.024-0.029-0.039-0.043      c-0.021-0.02-0.032-0.033-0.051-0.05c-0.006-0.006-0.015-0.011-0.021-0.017c-0.013-0.014-0.024-0.026-0.037-0.041      c-0.019-0.018-0.032-0.032-0.051-0.049c-0.005-0.006-0.011-0.01-0.016-0.014c-0.014-0.015-0.028-0.029-0.041-0.046      c-0.02-0.016-0.032-0.032-0.051-0.049c-0.006-0.004-0.014-0.01-0.02-0.017c-0.013-0.014-0.023-0.026-0.037-0.041      c-0.019-0.019-0.033-0.032-0.052-0.051c-0.006-0.004-0.012-0.011-0.021-0.015c-0.012-0.015-0.022-0.028-0.036-0.043      c-0.019-0.017-0.033-0.032-0.052-0.05c-0.006-0.004-0.013-0.01-0.019-0.014c-0.015-0.017-0.024-0.029-0.039-0.043      c-0.019-0.019-0.032-0.033-0.052-0.051c-0.006-0.005-0.012-0.011-0.02-0.017c-0.013-0.015-0.023-0.026-0.035-0.041      c-0.021-0.019-0.033-0.033-0.053-0.05c-0.004-0.004-0.009-0.008-0.015-0.012c-0.015-0.017-0.026-0.028-0.041-0.045      c-0.019-0.02-0.033-0.033-0.051-0.05c-0.007-0.004-0.013-0.008-0.017-0.015c-0.015-0.014-0.027-0.027-0.041-0.043      c-0.019-0.018-0.033-0.032-0.052-0.049c-0.006-0.004-0.011-0.01-0.017-0.015c-0.014-0.016-0.024-0.028-0.041-0.044      c-0.018-0.017-0.03-0.033-0.049-0.05c-0.006-0.004-0.012-0.008-0.018-0.015c-0.015-0.016-0.025-0.028-0.04-0.043      c-0.018-0.018-0.032-0.032-0.051-0.049c-0.004-0.004-0.011-0.008-0.015-0.012c-0.016-0.018-0.026-0.031-0.043-0.047      c-0.019-0.018-0.032-0.033-0.051-0.051c-0.007-0.004-0.013-0.01-0.019-0.014c-0.015-0.016-0.024-0.029-0.039-0.043      c-0.019-0.018-0.032-0.033-0.052-0.049c-0.006-0.006-0.012-0.011-0.018-0.017c-0.014-0.015-0.025-0.027-0.037-0.041      c-0.021-0.021-0.033-0.033-0.053-0.052c-0.005-0.004-0.011-0.01-0.017-0.014c-0.015-0.016-0.026-0.027-0.039-0.043      c-0.021-0.019-0.033-0.033-0.052-0.05c-0.006-0.006-0.014-0.012-0.02-0.017c-0.014-0.014-0.023-0.026-0.037-0.041      c-0.02-0.018-0.033-0.032-0.052-0.049c-0.006-0.006-0.013-0.01-0.019-0.016c-0.014-0.015-0.023-0.027-0.037-0.043      c-0.021-0.017-0.032-0.031-0.051-0.05c-0.009-0.006-0.017-0.013-0.021-0.019c-0.012-0.015-0.021-0.025-0.034-0.039      c-0.019-0.018-0.032-0.032-0.052-0.051c-0.006-0.005-0.01-0.009-0.016-0.014c-0.016-0.016-0.027-0.027-0.039-0.043      c-0.021-0.018-0.033-0.033-0.054-0.05c-0.006-0.005-0.012-0.011-0.02-0.015c-0.013-0.016-0.023-0.029-0.036-0.043      c-0.02-0.018-0.033-0.033-0.053-0.05c-0.006-0.005-0.012-0.01-0.019-0.015c-0.013-0.016-0.024-0.028-0.038-0.042      c-0.018-0.019-0.033-0.033-0.051-0.05c-0.006-0.006-0.014-0.012-0.02-0.018c-0.014-0.014-0.023-0.027-0.037-0.041      c-0.02-0.018-0.032-0.033-0.051-0.05c-0.004-0.005-0.014-0.01-0.02-0.017c-0.016-0.014-0.023-0.026-0.038-0.041      c-0.021-0.019-0.03-0.032-0.05-0.049c-0.005-0.006-0.014-0.01-0.02-0.016c-0.013-0.015-0.023-0.027-0.039-0.043      c-0.018-0.02-0.033-0.031-0.051-0.049c-0.007-0.006-0.013-0.01-0.02-0.018c-0.012-0.015-0.024-0.025-0.037-0.041      c-0.018-0.019-0.032-0.031-0.051-0.049c0.037,0.037,0.031,0.032,0.025,0.027c-0.014-0.014-0.025-0.027-0.037-0.041      c-0.02-0.018-0.033-0.034-0.052-0.05c-0.007-0.005-0.013-0.011-0.021-0.015c-0.012-0.017-0.022-0.028-0.036-0.043      c-0.019-0.019-0.033-0.033-0.052-0.051c-0.006-0.005-0.012-0.01-0.02-0.015c-0.013-0.017-0.023-0.028-0.037-0.042      c-0.019-0.02-0.033-0.033-0.052-0.051c-0.004-0.004-0.009-0.008-0.015-0.012c-0.015-0.016-0.026-0.029-0.043-0.047      c-0.019-0.017-0.031-0.033-0.051-0.049c-0.007-0.005-0.013-0.01-0.019-0.016c-0.015-0.014-0.024-0.027-0.038-0.041      c-0.02-0.018-0.032-0.033-0.051-0.049c-0.006-0.004-0.012-0.008-0.016-0.016c-0.016-0.015-0.025-0.027-0.041-0.043      c-0.019-0.018-0.033-0.031-0.051-0.05c-0.006-0.005-0.014-0.011-0.02-0.017c-0.014-0.016-0.023-0.026-0.038-0.041      c-0.019-0.02-0.032-0.032-0.052-0.051c-0.004-0.004-0.01-0.008-0.015-0.012c-0.015-0.016-0.026-0.029-0.041-0.045      c-0.019-0.018-0.032-0.033-0.051-0.05c-0.007-0.007-0.015-0.011-0.021-0.017c-0.014-0.016-0.023-0.026-0.037-0.039      c-0.018-0.021-0.032-0.035-0.051-0.052c-0.006-0.005-0.012-0.011-0.02-0.016c-0.014-0.015-0.023-0.027-0.037-0.042      c-0.02-0.02-0.033-0.033-0.052-0.051c-0.007-0.006-0.015-0.014-0.021-0.018c-0.013-0.015-0.022-0.025-0.035-0.039      c-0.019-0.018-0.033-0.033-0.052-0.051c-0.006-0.005-0.013-0.01-0.019-0.016c-0.014-0.014-0.024-0.027-0.038-0.041      c-0.019-0.019-0.031-0.033-0.052-0.049c-0.006-0.006-0.014-0.01-0.02-0.018c-0.013-0.015-0.023-0.025-0.037-0.041      c-0.018-0.018-0.031-0.031-0.051-0.049c-0.006-0.007-0.014-0.012-0.02-0.018c-0.013-0.016-0.023-0.026-0.037-0.041      c-0.019-0.02-0.031-0.032-0.051-0.049c-0.004-0.006-0.011-0.01-0.017-0.016c-0.015-0.016-0.024-0.029-0.039-0.043      c-0.021-0.018-0.032-0.033-0.053-0.05c-0.005-0.005-0.011-0.009-0.017-0.015c-0.016-0.016-0.026-0.027-0.039-0.043      c-0.02-0.018-0.033-0.033-0.053-0.05c-0.006-0.005-0.012-0.011-0.019-0.016c-0.013-0.015-0.024-0.027-0.038-0.042      c-0.018-0.018-0.033-0.033-0.051-0.049c-0.006-0.006-0.012-0.012-0.019-0.018c-0.014-0.014-0.024-0.025-0.038-0.041      c-0.019-0.018-0.033-0.033-0.052-0.051c-0.004-0.004-0.012-0.008-0.019-0.014c-0.012-0.016-0.024-0.027-0.039-0.043      c-0.02-0.019-0.03-0.033-0.051-0.049c-0.004-0.004-0.01-0.008-0.014-0.013c-0.014-0.017-0.027-0.028-0.043-0.045      c-0.018-0.019-0.031-0.032-0.051-0.05c-0.008-0.006-0.014-0.014-0.021-0.02c-0.013-0.014-0.023-0.025-0.035-0.039      c-0.019-0.018-0.033-0.033-0.051-0.049c-0.007-0.006-0.013-0.012-0.019-0.016c-0.015-0.016-0.025-0.027-0.037-0.043      c-0.021-0.018-0.033-0.033-0.054-0.049c-0.006-0.006-0.012-0.012-0.018-0.016c-0.014-0.015-0.025-0.027-0.039-0.043      c-0.018-0.018-0.031-0.033-0.053-0.05c-0.004-0.004-0.008-0.009-0.014-0.013c-0.014-0.016-0.027-0.028-0.041-0.045      c-0.018-0.018-0.033-0.033-0.051-0.049c-0.006-0.006-0.013-0.012-0.019-0.016c-0.015-0.016-0.024-0.027-0.039-0.043      c-0.019-0.018-0.032-0.033-0.051-0.049c-0.004-0.004-0.011-0.008-0.015-0.012c-0.015-0.018-0.026-0.031-0.043-0.047      c-0.018-0.017-0.03-0.033-0.051-0.049c-0.004-0.004-0.01-0.009-0.014-0.013c-0.016-0.017-0.027-0.028-0.043-0.045      c-0.02-0.019-0.033-0.032-0.051-0.05c-0.006-0.006-0.014-0.01-0.02-0.018c-0.013-0.014-0.023-0.025-0.037-0.041      c-0.019-0.018-0.033-0.031-0.052-0.049c-0.004-0.004-0.01-0.008-0.014-0.012c-0.017-0.016-0.027-0.031-0.041-0.047      c-0.021-0.018-0.033-0.031-0.054-0.049c-0.004-0.004-0.011-0.01-0.016-0.014c-0.016-0.015-0.027-0.027-0.04-0.043      c-0.019-0.02-0.032-0.033-0.052-0.052c-0.006-0.004-0.012-0.008-0.018-0.015c-0.014-0.016-0.025-0.026-0.039-0.043      c-0.019-0.018-0.033-0.032-0.051-0.049c-0.007-0.006-0.013-0.012-0.019-0.016c-0.015-0.016-0.024-0.027-0.039-0.043      c-0.019-0.018-0.032-0.031-0.052-0.049c-0.004-0.006-0.01-0.01-0.018-0.016c-0.014-0.015-0.025-0.027-0.039-0.043      c-0.018-0.017-0.031-0.033-0.051-0.049c-0.006-0.007-0.014-0.011-0.02-0.017c-0.014-0.015-0.023-0.026-0.037-0.041      c-0.018-0.019-0.031-0.033-0.051-0.05c-0.006-0.006-0.014-0.01-0.02-0.016c-0.013-0.016-0.023-0.027-0.038-0.041      c-0.018-0.02-0.032-0.033-0.051-0.051c-0.004-0.004-0.011-0.008-0.015-0.012c-0.015-0.016-0.026-0.029-0.041-0.045      c-0.02-0.018-0.032-0.033-0.051-0.051c-0.008-0.006-0.016-0.01-0.021-0.019c-0.014-0.014-0.023-0.024-0.037-0.038      c-0.018-0.019-0.032-0.033-0.051-0.052c-0.006-0.006-0.014-0.01-0.02-0.017c-0.015-0.014-0.025-0.026-0.037-0.039      c-0.019-0.018-0.033-0.034-0.052-0.051c-0.006-0.004-0.012-0.01-0.019-0.016c-0.014-0.014-0.024-0.027-0.038-0.043      c-0.019-0.018-0.032-0.031-0.052-0.049c-0.006-0.006-0.013-0.012-0.019-0.016c-0.013-0.017-0.024-0.027-0.038-0.041      c-0.018-0.019-0.031-0.034-0.051-0.051c-0.006-0.005-0.014-0.011-0.02-0.017c-0.013-0.015-0.023-0.026-0.037-0.041      c-0.02-0.017-0.033-0.033-0.051-0.049c-0.007-0.007-0.013-0.011-0.019-0.015c-0.013-0.016-0.024-0.028-0.038-0.043      c-0.02-0.02-0.034-0.033-0.052-0.05c-0.005-0.005-0.011-0.009-0.015-0.013c-0.016-0.016-0.028-0.031-0.041-0.045      c-0.02-0.018-0.035-0.033-0.052-0.051c-0.008-0.006-0.017-0.012-0.021-0.019c-0.014-0.014-0.021-0.026-0.035-0.039      c-0.02-0.018-0.033-0.032-0.051-0.051c-0.006-0.004-0.014-0.01-0.02-0.015c-0.013-0.014-0.023-0.028-0.037-0.043      c-0.019-0.017-0.031-0.032-0.052-0.049c-0.006-0.004-0.012-0.011-0.019-0.016c-0.014-0.014-0.024-0.027-0.039-0.043      c-0.018-0.018-0.032-0.031-0.051-0.049c-0.006-0.004-0.012-0.01-0.019-0.016c-0.013-0.015-0.024-0.027-0.038-0.041      c-0.018-0.019-0.033-0.033-0.051-0.051c-0.006-0.005-0.012-0.011-0.018-0.017c-0.016-0.015-0.025-0.026-0.039-0.041      c-0.02-0.017-0.033-0.033-0.053-0.049c-0.006-0.007-0.012-0.011-0.019-0.017c-0.013-0.016-0.024-0.026-0.037-0.041      c-0.021-0.02-0.032-0.033-0.052-0.05c-0.004-0.005-0.01-0.009-0.014-0.013c-0.014-0.016-0.027-0.028-0.043-0.045      c-0.018-0.018-0.031-0.033-0.051-0.051c-0.006-0.004-0.014-0.01-0.02-0.017c-0.014-0.014-0.023-0.026-0.037-0.041      c-0.02-0.018-0.033-0.032-0.051-0.049c-0.008-0.006-0.014-0.012-0.02-0.017c-0.014-0.014-0.023-0.026-0.037-0.041      c-0.02-0.019-0.033-0.034-0.052-0.051c-0.006-0.004-0.013-0.011-0.019-0.015c-0.014-0.015-0.024-0.028-0.039-0.044      c-0.018-0.016-0.033-0.031-0.051-0.049c-0.006-0.004-0.012-0.01-0.019-0.016c-0.013-0.015-0.024-0.027-0.038-0.041      c-0.018-0.019-0.033-0.033-0.051-0.051c-0.006-0.005-0.012-0.009-0.02-0.015c-0.012-0.017-0.023-0.026-0.037-0.043      c-0.02-0.019-0.033-0.033-0.053-0.049c-0.004-0.007-0.012-0.011-0.02-0.017c-0.012-0.016-0.023-0.027-0.036-0.041      c-0.019-0.02-0.032-0.033-0.052-0.05c-0.006-0.007-0.012-0.011-0.018-0.015c-0.013-0.016-0.023-0.028-0.039-0.043      c-0.018-0.018-0.031-0.033-0.051-0.049c-0.008-0.008-0.014-0.014-0.021-0.021c-0.013-0.012-0.022-0.024-0.035-0.039      c-0.019-0.018-0.03-0.032-0.051-0.049c-0.005-0.002-0.009-0.006-0.013-0.008c-0.015-0.019-0.028-0.033-0.043-0.05      c-0.019-0.019-0.033-0.032-0.051-0.051c-0.007-0.004-0.013-0.011-0.019-0.015c-0.015-0.015-0.025-0.026-0.039-0.041      c-0.019-0.019-0.033-0.034-0.052-0.052c-0.008-0.006-0.014-0.012-0.021-0.018c-0.012-0.015-0.022-0.025-0.034-0.039      c-0.019-0.019-0.033-0.033-0.052-0.051c-0.006-0.007-0.012-0.011-0.021-0.017c-0.012-0.017-0.022-0.027-0.036-0.041      c-0.019-0.019-0.031-0.033-0.05-0.05c-0.008-0.006-0.017-0.012-0.021-0.019c-0.012-0.015-0.022-0.026-0.035-0.038      c-0.018-0.02-0.032-0.033-0.051-0.05c-0.004-0.006-0.011-0.011-0.017-0.015c-0.014-0.016-0.024-0.027-0.041-0.043      c-0.019-0.018-0.03-0.032-0.051-0.049c-0.004-0.006-0.013-0.01-0.017-0.016c-0.014-0.015-0.024-0.027-0.039-0.043      c-0.019-0.02-0.032-0.033-0.053-0.05c-0.005-0.006-0.011-0.011-0.017-0.015c-0.015-0.016-0.024-0.028-0.039-0.043      c-0.019-0.019-0.032-0.032-0.051-0.051c-0.007-0.006-0.013-0.011-0.019-0.016c-0.015-0.016-0.025-0.027-0.037-0.041      c-0.021-0.018-0.033-0.033-0.053-0.051c-0.007-0.004-0.013-0.01-0.02-0.014c-0.014-0.016-0.023-0.029-0.036-0.043      c-0.021-0.018-0.033-0.033-0.054-0.051c-0.006-0.006-0.014-0.013-0.021-0.017c-0.012-0.017-0.022-0.026-0.034-0.039      c-0.019-0.019-0.033-0.034-0.052-0.052c-0.006-0.006-0.015-0.012-0.021-0.018c-0.014-0.015-0.024-0.025-0.037-0.04      c-0.019-0.019-0.032-0.032-0.051-0.049c-0.005-0.004-0.01-0.007-0.014-0.013c-0.016-0.016-0.027-0.028-0.042-0.045      c-0.019-0.019-0.033-0.032-0.053-0.049c-0.005-0.004-0.011-0.01-0.017-0.015c-0.014-0.016-0.024-0.028-0.041-0.044      c-0.019-0.02-0.031-0.033-0.051-0.05c-0.006-0.006-0.013-0.013-0.02-0.017c-0.014-0.016-0.024-0.026-0.036-0.041      c-0.019-0.019-0.032-0.032-0.052-0.051c-0.004-0.005-0.01-0.009-0.017-0.014c-0.014-0.016-0.026-0.027-0.038-0.043      c-0.021-0.018-0.033-0.033-0.053-0.051c-0.007-0.006-0.014-0.01-0.021-0.016c-0.012-0.016-0.022-0.027-0.035-0.041      c-0.02-0.018-0.032-0.033-0.051-0.05c-0.008-0.005-0.014-0.01-0.02-0.015c-0.014-0.016-0.025-0.028-0.038-0.042      c-0.019-0.019-0.032-0.034-0.051-0.052c-0.007-0.004-0.013-0.01-0.019-0.016c-0.015-0.014-0.024-0.027-0.039-0.042      c-0.019-0.017-0.033-0.032-0.052-0.049c-0.006-0.005-0.012-0.01-0.018-0.017c-0.015-0.014-0.023-0.026-0.038-0.041      c-0.02-0.019-0.032-0.032-0.053-0.049c-0.004-0.004-0.008-0.008-0.014-0.013c-0.014-0.016-0.027-0.028-0.041-0.046      c-0.019-0.018-0.033-0.031-0.051-0.049c-0.007-0.005-0.013-0.012-0.02-0.016c-0.014-0.015-0.024-0.027-0.039-0.043      c-0.019-0.019-0.031-0.031-0.051-0.049c-0.004-0.005-0.013-0.011-0.017-0.015c-0.017-0.015-0.026-0.028-0.041-0.044      c-0.019-0.018-0.032-0.033-0.051-0.051c-0.007-0.006-0.013-0.01-0.019-0.016c-0.014-0.015-0.023-0.025-0.037-0.041      c-0.02-0.018-0.032-0.033-0.051-0.05c-0.008-0.005-0.014-0.01-0.02-0.015c-0.014-0.016-0.023-0.028-0.038-0.042      c-0.019-0.019-0.032-0.033-0.052-0.05c-0.006-0.006-0.012-0.01-0.016-0.014c-0.016-0.017-0.025-0.029-0.041-0.046      c-0.019-0.017-0.033-0.032-0.052-0.049c-0.006-0.005-0.012-0.01-0.019-0.015c-0.014-0.017-0.024-0.028-0.037-0.043      c-0.02-0.019-0.033-0.032-0.053-0.049c-0.006-0.006-0.012-0.011-0.018-0.017c-0.014-0.015-0.025-0.026-0.037-0.041      c-0.02-0.019-0.033-0.032-0.053-0.051c-0.006-0.005-0.012-0.011-0.018-0.017c-0.015-0.015-0.024-0.025-0.037-0.041      c-0.021-0.017-0.033-0.031-0.053-0.049c-0.007-0.007-0.015-0.013-0.021-0.019c-0.014-0.013-0.021-0.024-0.036-0.039      c-0.017-0.019-0.031-0.033-0.052-0.05c-0.004-0.006-0.012-0.01-0.016-0.014c-0.014-0.017-0.025-0.029-0.039-0.045      c-0.02-0.018-0.033-0.031-0.051-0.05c-0.008-0.006-0.015-0.012-0.021-0.017c-0.014-0.016-0.022-0.026-0.035-0.04      c-0.02-0.019-0.032-0.033-0.051-0.052c-0.01-0.006-0.016-0.012-0.021-0.016c-0.013-0.016-0.021-0.027-0.035-0.039      c-0.019-0.019-0.033-0.033-0.051-0.05c-0.006-0.004-0.011-0.009-0.016-0.013c-0.014-0.019-0.027-0.03-0.041-0.047      c-0.021-0.019-0.033-0.032-0.053-0.049c-0.004-0.007-0.013-0.011-0.019-0.017c-0.013-0.015-0.024-0.026-0.037-0.041      c-0.019-0.019-0.032-0.033-0.052-0.049c-0.006-0.007-0.012-0.011-0.016-0.017c-0.014-0.014-0.025-0.026-0.039-0.043      c-0.02-0.017-0.033-0.031-0.053-0.049c-0.006-0.006-0.012-0.013-0.021-0.017c-0.013-0.015-0.022-0.026-0.036-0.041      c-0.018-0.017-0.031-0.032-0.051-0.05c-0.008-0.006-0.016-0.012-0.021-0.019c-0.013-0.014-0.021-0.024-0.035-0.038      c-0.018-0.019-0.031-0.033-0.051-0.052c-0.006-0.006-0.014-0.01-0.021-0.017c-0.012-0.016-0.023-0.026-0.037-0.041      c-0.019-0.018-0.031-0.032-0.049-0.049c-0.008-0.008-0.017-0.014-0.021-0.02c-0.012-0.013-0.021-0.025-0.033-0.037      c-0.019-0.02-0.031-0.035-0.051-0.052c-0.007-0.004-0.014-0.011-0.02-0.017c-0.013-0.015-0.023-0.026-0.037-0.039      c-0.019-0.019-0.031-0.034-0.051-0.051c-0.007-0.007-0.015-0.013-0.021-0.019c-0.015-0.015-0.024-0.024-0.037-0.039      c-0.019-0.019-0.033-0.033-0.052-0.049c-0.006-0.007-0.012-0.011-0.018-0.017c-0.016-0.016-0.025-0.026-0.039-0.043      c-0.02-0.019-0.033-0.033-0.053-0.049c-0.004-0.006-0.012-0.01-0.017-0.017c-0.013-0.015-0.026-0.026-0.038-0.041      c-0.02-0.017-0.033-0.032-0.051-0.05c-0.008-0.006-0.014-0.012-0.021-0.019c-0.012-0.014-0.021-0.024-0.033-0.039      c-0.02-0.018-0.033-0.032-0.053-0.049c-0.004-0.006-0.01-0.01-0.018-0.017c-0.012-0.016-0.025-0.026-0.039-0.043      c-0.018-0.018-0.031-0.032-0.051-0.049c-0.004-0.006-0.011-0.01-0.017-0.014c-0.015-0.017-0.024-0.029-0.039-0.045      c-0.021-0.018-0.032-0.033-0.051-0.05c-0.007-0.004-0.015-0.011-0.021-0.015c-0.014-0.015-0.022-0.028-0.037-0.043      c-0.02-0.017-0.033-0.033-0.051-0.049c-0.008-0.005-0.014-0.009-0.018-0.013c-0.014-0.017-0.025-0.028-0.039-0.045      c-0.02-0.017-0.035-0.033-0.051-0.049c-0.008-0.007-0.014-0.013-0.021-0.019c-0.013-0.014-0.023-0.024-0.037-0.039      c-0.019-0.018-0.033-0.033-0.052-0.051c-0.006-0.006-0.014-0.012-0.021-0.02c-0.012-0.014-0.021-0.023-0.033-0.038      c-0.02-0.019-0.033-0.032-0.053-0.05c-0.006-0.006-0.013-0.01-0.019-0.017c-0.014-0.014-0.024-0.026-0.037-0.041      c-0.021-0.018-0.032-0.032-0.053-0.049c-0.006-0.006-0.015-0.015-0.021-0.021c-0.014-0.014-0.022-0.022-0.035-0.037      c-0.02-0.02-0.032-0.032-0.051-0.051c-0.007-0.004-0.014-0.01-0.02-0.016c-0.014-0.016-0.023-0.027-0.037-0.041      c-0.02-0.02-0.033-0.033-0.051-0.051c-0.008-0.005-0.014-0.01-0.02-0.016c-0.013-0.015-0.023-0.025-0.039-0.043      c-0.019-0.017-0.033-0.033-0.051-0.049c-0.007-0.005-0.013-0.011-0.02-0.015c-0.014-0.017-0.024-0.029-0.038-0.043      c-0.019-0.019-0.031-0.033-0.052-0.05c-0.004-0.004-0.008-0.008-0.012-0.012c-0.016-0.016-0.029-0.028-0.043-0.045      c-0.02-0.018-0.033-0.033-0.051-0.051c-0.008-0.006-0.018-0.012-0.021-0.02c-0.012-0.014-0.022-0.023-0.035-0.037      c-0.018-0.02-0.032-0.033-0.051-0.051c-0.004-0.006-0.011-0.01-0.016-0.014c-0.014-0.015-0.025-0.029-0.041-0.044      c-0.016-0.018-0.031-0.032-0.049-0.049c-0.008-0.006-0.016-0.013-0.021-0.021c-0.012-0.012-0.022-0.022-0.035-0.037      c-0.02-0.018-0.032-0.032-0.051-0.051c-0.007-0.006-0.016-0.014-0.021-0.02c-0.013-0.014-0.021-0.023-0.033-0.037      c-0.019-0.018-0.032-0.033-0.051-0.051c-0.009-0.006-0.015-0.014-0.021-0.018c-0.014-0.015-0.022-0.025-0.035-0.039      c-0.02-0.019-0.033-0.033-0.051-0.051c-0.008-0.005-0.014-0.011-0.02-0.015c-0.014-0.017-0.024-0.028-0.039-0.043      c-0.018-0.019-0.031-0.033-0.051-0.05c-0.004-0.004-0.01-0.008-0.014-0.012c-0.015-0.016-0.027-0.029-0.041-0.045      c-0.021-0.018-0.033-0.033-0.052-0.049c-0.006-0.006-0.012-0.01-0.019-0.016c-0.014-0.016-0.024-0.027-0.038-0.043      c-0.021-0.018-0.033-0.033-0.052-0.049c-0.006-0.006-0.013-0.012-0.02-0.016c-0.014-0.015-0.023-0.027-0.037-0.043      c-0.02-0.02-0.033-0.033-0.053-0.05c-0.006-0.006-0.014-0.013-0.02-0.017c-0.013-0.016-0.023-0.026-0.037-0.041      c-0.019-0.018-0.033-0.032-0.051-0.051c-0.006-0.006-0.013-0.01-0.019-0.016c-0.013-0.014-0.024-0.027-0.037-0.041      c-0.019-0.018-0.033-0.033-0.051-0.051c-0.007-0.006-0.015-0.012-0.021-0.018c-0.012-0.015-0.021-0.025-0.034-0.039      c-0.021-0.019-0.035-0.031-0.052-0.051c-0.008-0.007-0.014-0.011-0.021-0.017c-0.012-0.015-0.022-0.026-0.037-0.041      c-0.018-0.017-0.031-0.033-0.051-0.05c-0.006-0.004-0.012-0.01-0.019-0.016c-0.014-0.014-0.024-0.027-0.038-0.041      c-0.019-0.02-0.031-0.033-0.052-0.051c-0.006-0.006-0.015-0.012-0.021-0.018c-0.014-0.016-0.022-0.025-0.035-0.039      c-0.02-0.02-0.032-0.031-0.051-0.049c-0.004-0.004-0.011-0.008-0.015-0.012c-0.015-0.017-0.026-0.029-0.042-0.047      c-0.02-0.018-0.033-0.031-0.051-0.05c-0.008-0.006-0.016-0.011-0.021-0.017c-0.014-0.016-0.022-0.026-0.037-0.041      c-0.018-0.018-0.031-0.032-0.049-0.049c-0.007-0.006-0.014-0.012-0.02-0.016c-0.014-0.016-0.024-0.027-0.037-0.043      c-0.02-0.018-0.033-0.033-0.051-0.051c-0.008-0.004-0.016-0.012-0.021-0.016c-0.012-0.016-0.023-0.027-0.035-0.041      c-0.02-0.019-0.033-0.031-0.052-0.051c-0.007-0.006-0.015-0.013-0.021-0.02c-0.014-0.012-0.021-0.023-0.033-0.036      c-0.02-0.019-0.033-0.034-0.051-0.052c-0.008-0.004-0.014-0.01-0.021-0.016c-0.014-0.014-0.024-0.027-0.038-0.041      c-0.017-0.018-0.033-0.033-0.052-0.049c-0.006-0.006-0.013-0.01-0.019-0.016c-0.014-0.016-0.024-0.027-0.039-0.043      c-0.018-0.019-0.03-0.031-0.051-0.051c-0.006-0.004-0.013-0.011-0.02-0.016c-0.012-0.016-0.023-0.025-0.035-0.041      c-0.018-0.02-0.033-0.031-0.051-0.05c-0.006-0.006-0.016-0.013-0.021-0.017c-0.013-0.015-0.023-0.026-0.037-0.041      c-0.019-0.018-0.031-0.033-0.051-0.049c-0.005-0.005-0.011-0.008-0.015-0.012c-0.015-0.016-0.026-0.029-0.041-0.047      c-0.021-0.018-0.033-0.032-0.052-0.049c-0.008-0.006-0.014-0.012-0.021-0.018c-0.012-0.016-0.022-0.025-0.034-0.041      c-0.021-0.018-0.035-0.033-0.054-0.05c-0.006-0.005-0.013-0.011-0.019-0.019c-0.015-0.014-0.023-0.024-0.037-0.038      c-0.019-0.019-0.032-0.034-0.051-0.052c-0.009-0.006-0.017-0.012-0.021-0.019c-0.012-0.013-0.021-0.024-0.033-0.037      c-0.018-0.019-0.033-0.034-0.053-0.05c-0.004-0.006-0.012-0.01-0.02-0.016c-0.012-0.016-0.023-0.027-0.035-0.041      c-0.02-0.02-0.033-0.033-0.053-0.051c-0.006-0.006-0.013-0.011-0.019-0.016c-0.015-0.016-0.024-0.027-0.038-0.042      c-0.02-0.021-0.031-0.032-0.053-0.05c-0.006-0.008-0.014-0.014-0.02-0.02c-0.014-0.013-0.023-0.024-0.035-0.039      c-0.02-0.018-0.033-0.033-0.053-0.049c-0.006-0.006-0.012-0.011-0.018-0.017c-0.016-0.013-0.023-0.027-0.037-0.04      c-0.02-0.018-0.033-0.034-0.051-0.051c-0.008-0.004-0.014-0.008-0.02-0.014c-0.013-0.017-0.023-0.027-0.039-0.045      c-0.02-0.017-0.033-0.031-0.051-0.05c-0.007-0.006-0.016-0.013-0.021-0.019c-0.014-0.014-0.022-0.024-0.035-0.038      c-0.02-0.019-0.032-0.032-0.053-0.052c-0.006-0.006-0.012-0.011-0.018-0.017c-0.014-0.013-0.025-0.026-0.037-0.039      c-0.02-0.019-0.033-0.034-0.053-0.05c-0.006-0.005-0.012-0.01-0.02-0.016c-0.012-0.016-0.023-0.027-0.035-0.041      c-0.02-0.02-0.033-0.033-0.053-0.051c-0.006-0.007-0.014-0.013-0.021-0.018c-0.012-0.016-0.021-0.023-0.036-0.04      c-0.017-0.019-0.032-0.033-0.05-0.049c-0.006-0.009-0.014-0.013-0.02-0.019c-0.014-0.014-0.023-0.024-0.037-0.041      c-0.02-0.018-0.033-0.033-0.053-0.049c-0.006-0.007-0.014-0.013-0.021-0.019c-0.011-0.013-0.021-0.026-0.033-0.038      c-0.019-0.018-0.032-0.034-0.053-0.051c-0.006-0.004-0.013-0.01-0.019-0.016c-0.013-0.015-0.022-0.027-0.037-0.039      c-0.019-0.021-0.032-0.035-0.051-0.053c-0.007-0.005-0.013-0.01-0.019-0.015c-0.015-0.017-0.025-0.028-0.037-0.042      c-0.021-0.02-0.033-0.033-0.053-0.053c-0.007-0.006-0.013-0.01-0.021-0.017c-0.012-0.014-0.022-0.026-0.034-0.04      c-0.021-0.018-0.033-0.033-0.054-0.049c-0.006-0.005-0.012-0.01-0.018-0.016c-0.013-0.015-0.025-0.027-0.037-0.041      c-0.019-0.02-0.033-0.033-0.052-0.051c-0.008-0.007-0.015-0.013-0.021-0.019c-0.014-0.015-0.023-0.024-0.035-0.039      c-0.018-0.019-0.033-0.034-0.051-0.05c-0.008-0.008-0.018-0.014-0.021-0.021c-0.01-0.012-0.021-0.023-0.033-0.037      c-0.018-0.017-0.033-0.031-0.051-0.049c-0.006-0.006-0.014-0.012-0.02-0.018c-0.014-0.014-0.023-0.027-0.037-0.04      c-0.019-0.017-0.031-0.032-0.051-0.05c-0.004-0.004-0.012-0.008-0.018-0.014c-0.016-0.017-0.025-0.029-0.039-0.044      c-0.02-0.018-0.034-0.032-0.051-0.05c-0.01-0.006-0.016-0.011-0.021-0.018c-0.014-0.014-0.023-0.025-0.037-0.039      c-0.018-0.02-0.033-0.033-0.051-0.05c-0.006-0.006-0.014-0.01-0.02-0.016c-0.014-0.014-0.023-0.027-0.037-0.041      c-0.018-0.017-0.033-0.033-0.051-0.05c-0.006-0.005-0.012-0.01-0.02-0.015c-0.014-0.014-0.023-0.028-0.038-0.042      c-0.019-0.017-0.032-0.034-0.052-0.049c-0.006-0.005-0.012-0.01-0.02-0.015c-0.012-0.014-0.023-0.028-0.037-0.042      c-0.018-0.017-0.031-0.034-0.051-0.05c-0.006-0.005-0.014-0.011-0.02-0.016c-0.014-0.014-0.023-0.027-0.037-0.041      c-0.018-0.017-0.033-0.034-0.051-0.049c-0.006-0.005-0.012-0.009-0.018-0.014c-0.015-0.014-0.025-0.029-0.037-0.042      c-0.021-0.018-0.033-0.034-0.054-0.05c-0.005-0.005-0.012-0.009-0.017-0.014c-0.016-0.014-0.026-0.028-0.039-0.042      c-0.02-0.017-0.033-0.034-0.055-0.05c-0.004-0.004-0.01-0.009-0.014-0.013c-0.015-0.014-0.025-0.028-0.041-0.043      c-0.018-0.017-0.033-0.034-0.051-0.05c-0.007-0.006-0.014-0.012-0.021-0.018c-0.012-0.013-0.021-0.025-0.033-0.038      c-0.02-0.017-0.032-0.033-0.053-0.049c-0.006-0.005-0.012-0.01-0.019-0.015c-0.013-0.014-0.024-0.028-0.036-0.041      c-0.02-0.017-0.033-0.034-0.052-0.05c-0.007-0.005-0.013-0.01-0.019-0.015c-0.015-0.014-0.024-0.028-0.037-0.042      c-0.021-0.017-0.033-0.034-0.053-0.05c-0.007-0.005-0.013-0.01-0.019-0.015c-0.015-0.014-0.024-0.028-0.038-0.042      c-0.02-0.017-0.032-0.034-0.051-0.05c-0.006-0.005-0.016-0.01-0.021-0.016c-0.013-0.014-0.021-0.027-0.037-0.041      c-0.018-0.017-0.031-0.034-0.051-0.05c-0.005-0.005-0.011-0.009-0.018-0.014c-0.012-0.014-0.023-0.028-0.037-0.042      c-0.018-0.017-0.033-0.033-0.051-0.049c-0.006-0.005-0.012-0.01-0.021-0.015c-0.013-0.014-0.022-0.028-0.037-0.042      c-0.019-0.017-0.032-0.034-0.052-0.05c-0.007-0.006-0.014-0.012-0.021-0.018c-0.012-0.013-0.021-0.025-0.035-0.038      c-0.018-0.017-0.03-0.034-0.049-0.05c-0.008-0.006-0.016-0.012-0.021-0.018c-0.013-0.013-0.022-0.025-0.035-0.038      c-0.019-0.017-0.032-0.034-0.051-0.05c-0.007-0.005-0.015-0.011-0.021-0.016c-0.014-0.014-0.022-0.027-0.037-0.041      c-0.018-0.017-0.03-0.034-0.051-0.05c-0.006-0.005-0.014-0.01-0.02-0.016c-0.014-0.013-0.023-0.027-0.037-0.04      c-0.02-0.017-0.033-0.034-0.051-0.05c-0.008-0.006-0.016-0.011-0.021-0.017c-0.012-0.013-0.021-0.026-0.033-0.039      c-0.02-0.018-0.033-0.034-0.051-0.05c-0.008-0.006-0.016-0.012-0.021-0.018c-0.012-0.013-0.021-0.025-0.033-0.038      c-0.02-0.017-0.032-0.033-0.053-0.049c-0.004-0.004-0.01-0.009-0.016-0.013c-0.014-0.014-0.025-0.029-0.039-0.043      c-0.019-0.017-0.033-0.033-0.051-0.049c-0.007-0.005-0.014-0.01-0.021-0.016c-0.013-0.013-0.022-0.027-0.035-0.04      c-0.021-0.017-0.033-0.034-0.053-0.05c-0.006-0.006-0.015-0.011-0.021-0.017c-0.015-0.013-0.022-0.026-0.035-0.04      c-0.019-0.017-0.032-0.034-0.052-0.049c-0.006-0.005-0.014-0.01-0.02-0.016c-0.014-0.014-0.023-0.027-0.037-0.041      c-0.02-0.017-0.033-0.033-0.051-0.049c-0.008-0.006-0.015-0.011-0.021-0.017c-0.015-0.013-0.024-0.027-0.037-0.04      c-0.019-0.017-0.032-0.034-0.052-0.049c-0.004-0.004-0.01-0.008-0.016-0.012c-0.013-0.015-0.025-0.03-0.039-0.044      c-0.02-0.017-0.035-0.034-0.054-0.05c-0.005-0.005-0.012-0.01-0.019-0.015c-0.014-0.014-0.022-0.028-0.037-0.042      c-0.02-0.017-0.033-0.034-0.053-0.05c-0.006-0.005-0.012-0.01-0.02-0.016c-0.014-0.013-0.023-0.027-0.035-0.04      c-0.02-0.017-0.033-0.033-0.053-0.05c-0.005-0.004-0.012-0.009-0.016-0.013c-0.017-0.014-0.026-0.029-0.039-0.042      c-0.021-0.017-0.033-0.034-0.053-0.049c-0.007-0.005-0.013-0.01-0.019-0.015c-0.013-0.014-0.025-0.028-0.037-0.042      c-0.019-0.017-0.033-0.033-0.052-0.049c-0.006-0.005-0.014-0.01-0.02-0.015c-0.012-0.014-0.023-0.028-0.037-0.042      c-0.02-0.018-0.033-0.034-0.051-0.05c-0.006-0.005-0.015-0.01-0.021-0.016c-0.012-0.013-0.021-0.027-0.036-0.04      c-0.019-0.017-0.032-0.034-0.05-0.049c-0.006-0.005-0.015-0.01-0.021-0.015c-0.013-0.014-0.022-0.028-0.037-0.042      c-0.021-0.017-0.032-0.034-0.053-0.05c-0.006-0.005-0.013-0.01-0.019-0.016c-0.014-0.014-0.022-0.027-0.037-0.041      c-0.018-0.017-0.033-0.034-0.051-0.049c-0.008-0.007-0.016-0.013-0.022-0.02c-0.011-0.012-0.021-0.024-0.033-0.037      c-0.019-0.017-0.03-0.034-0.05-0.05c-0.006-0.005-0.014-0.011-0.021-0.017c-0.012-0.013-0.022-0.026-0.035-0.039      c-0.018-0.017-0.033-0.034-0.053-0.05c-0.004-0.005-0.01-0.009-0.018-0.014c-0.014-0.014-0.023-0.028-0.037-0.042      c-0.02-0.017-0.033-0.034-0.053-0.05c-0.006-0.005-0.012-0.011-0.021-0.016c-0.012-0.014-0.022-0.027-0.034-0.041      c-0.021-0.017-0.033-0.034-0.054-0.05c-0.006-0.005-0.013-0.011-0.021-0.016c-0.012-0.013-0.022-0.027-0.035-0.04      c-0.02-0.017-0.032-0.033-0.051-0.049c-0.006-0.005-0.014-0.01-0.02-0.015c-0.014-0.014-0.023-0.027-0.037-0.041      c-0.02-0.017-0.031-0.034-0.051-0.05c-0.007-0.006-0.016-0.012-0.021-0.018c-0.012-0.013-0.021-0.025-0.033-0.038      c-0.021-0.017-0.032-0.034-0.053-0.05c-0.006-0.004-0.012-0.009-0.016-0.013c-0.016-0.015-0.025-0.029-0.041-0.043      c-0.018-0.017-0.031-0.034-0.051-0.05C48.113,28.005,48.105,28,48.1,27.992c-0.013-0.013-0.021-0.025-0.035-0.038      c-0.019-0.017-0.031-0.033-0.052-0.05c-0.004-0.004-0.01-0.009-0.016-0.013c-0.015-0.014-0.025-0.029-0.039-0.042      c-0.019-0.018-0.033-0.034-0.052-0.05c-0.008-0.006-0.014-0.012-0.021-0.018c-0.01-0.013-0.021-0.025-0.033-0.038      c-0.018-0.018-0.033-0.034-0.051-0.05c-0.006-0.005-0.016-0.011-0.021-0.016c-0.012-0.014-0.021-0.028-0.037-0.041      c-0.018-0.017-0.031-0.034-0.051-0.05c-0.006-0.005-0.013-0.01-0.019-0.015c-0.015-0.014-0.024-0.028-0.037-0.042      c-0.021-0.017-0.032-0.034-0.053-0.049c-0.004-0.005-0.011-0.009-0.017-0.014c-0.014-0.014-0.024-0.028-0.039-0.042      c-0.02-0.017-0.033-0.034-0.051-0.049c-0.005-0.005-0.012-0.009-0.018-0.014c-0.014-0.014-0.025-0.028-0.039-0.042      c-0.02-0.017-0.033-0.034-0.051-0.05c-0.008-0.005-0.014-0.011-0.021-0.016c-0.013-0.013-0.023-0.027-0.035-0.04      c-0.021-0.017-0.033-0.033-0.052-0.049c-0.008-0.005-0.014-0.01-0.021-0.015c-0.012-0.014-0.022-0.028-0.036-0.042      c-0.019-0.017-0.033-0.034-0.052-0.05c-0.006-0.005-0.014-0.011-0.021-0.016c-0.012-0.013-0.021-0.026-0.035-0.04      c-0.018-0.017-0.032-0.034-0.051-0.05c-0.008-0.006-0.015-0.012-0.021-0.018c-0.013-0.013-0.023-0.026-0.035-0.038      c-0.019-0.017-0.033-0.034-0.051-0.049c-0.007-0.005-0.013-0.009-0.019-0.014c-0.013-0.014-0.024-0.029-0.039-0.042      c-0.019-0.017-0.032-0.033-0.051-0.05c-0.007-0.005-0.013-0.011-0.021-0.016c-0.014-0.014-0.022-0.027-0.037-0.04      c-0.018-0.017-0.031-0.034-0.051-0.049c-0.006-0.005-0.012-0.009-0.018-0.014c-0.014-0.014-0.024-0.028-0.039-0.042      c-0.018-0.017-0.031-0.034-0.051-0.05c-0.006-0.005-0.014-0.011-0.02-0.016c-0.013-0.014-0.023-0.027-0.037-0.041      c-0.019-0.018-0.031-0.034-0.052-0.05c-0.006-0.005-0.012-0.01-0.019-0.016c-0.015-0.013-0.024-0.027-0.037-0.04      c-0.02-0.017-0.032-0.033-0.051-0.05c-0.008-0.005-0.015-0.011-0.021-0.016c-0.014-0.014-0.023-0.027-0.036-0.04      c-0.019-0.017-0.032-0.034-0.052-0.05c-0.008-0.006-0.014-0.011-0.021-0.017c-0.012-0.013-0.021-0.026-0.035-0.039      c-0.018-0.017-0.031-0.034-0.051-0.05c-0.021-0.021-0.048-0.042-0.072-0.062c-0.021-0.015-0.037-0.03-0.06-0.044      c-0.008-0.005-0.017-0.011-0.021-0.017l-13.713-9.139c-0.433-0.288-0.997-0.288-1.43,0l-13.711,9.14      c-0.008,0.006-0.014,0.012-0.021,0.017c-0.02,0.014-0.039,0.029-0.059,0.044c-0.024,0.02-0.049,0.04-0.073,0.062      c-0.017,0.015-0.034,0.033-0.051,0.049c-0.022,0.023-0.044,0.046-0.064,0.07c-0.015,0.019-0.03,0.036-0.044,0.056      c-0.02,0.026-0.037,0.052-0.055,0.078c-0.013,0.02-0.025,0.039-0.037,0.06c-0.016,0.028-0.03,0.057-0.044,0.086      c-0.01,0.021-0.02,0.041-0.029,0.063c-0.012,0.031-0.023,0.063-0.033,0.094c-0.007,0.021-0.014,0.042-0.02,0.063      c-0.009,0.035-0.016,0.071-0.022,0.107c-0.003,0.019-0.008,0.037-0.011,0.056C17.004,27.316,17,27.373,17,27.43v9.14      c0,0.058,0.004,0.113,0.011,0.169c0.003,0.02,0.007,0.036,0.011,0.056c0.006,0.036,0.013,0.072,0.022,0.107      c0.006,0.021,0.013,0.043,0.02,0.063c0.01,0.031,0.021,0.063,0.033,0.096c0.009,0.021,0.019,0.041,0.029,0.063      c0.014,0.028,0.028,0.06,0.044,0.087c0.011,0.021,0.024,0.039,0.037,0.061c0.018,0.025,0.035,0.055,0.055,0.078      c0.014,0.021,0.029,0.036,0.044,0.055c0.021,0.023,0.042,0.051,0.064,0.07c0.017,0.02,0.034,0.033,0.051,0.051      c0.007,0.009,0.016,0.016,0.024,0.021c0.01,0.014,0.021,0.021,0.031,0.034c0.017,0.021,0.034,0.034,0.051,0.051      c0.007,0.007,0.015,0.015,0.023,0.021c0.011,0.013,0.022,0.022,0.033,0.035c0.017,0.02,0.033,0.035,0.05,0.051      c0.007,0.007,0.015,0.014,0.022,0.021c0.011,0.013,0.022,0.025,0.033,0.036c0.018,0.02,0.034,0.034,0.051,0.053      c0.008,0.006,0.017,0.014,0.024,0.021c0.01,0.013,0.021,0.022,0.031,0.034c0.017,0.019,0.034,0.033,0.051,0.052      c0.008,0.007,0.017,0.014,0.025,0.021c0.011,0.01,0.021,0.021,0.031,0.032c0.017,0.017,0.034,0.034,0.05,0.052      c0.007,0.006,0.015,0.012,0.022,0.021c0.011,0.013,0.022,0.022,0.034,0.034c0.017,0.021,0.034,0.035,0.051,0.054      c0.008,0.007,0.018,0.017,0.026,0.021c0.01,0.013,0.02,0.022,0.03,0.033c0.018,0.018,0.034,0.033,0.051,0.051      c0.007,0.008,0.016,0.015,0.023,0.021c0.011,0.012,0.021,0.023,0.032,0.034c0.017,0.019,0.033,0.034,0.05,0.052      c0.008,0.007,0.017,0.016,0.025,0.021c0.01,0.013,0.021,0.022,0.031,0.033c0.017,0.019,0.034,0.033,0.051,0.051      c0.007,0.008,0.015,0.013,0.022,0.021c0.011,0.013,0.022,0.024,0.034,0.037c0.017,0.019,0.034,0.032,0.051,0.051      c0.008,0.009,0.018,0.017,0.027,0.021c0.009,0.014,0.019,0.022,0.029,0.033c0.018,0.02,0.033,0.033,0.05,0.052      c0.006,0.007,0.014,0.013,0.021,0.019c0.011,0.016,0.022,0.024,0.035,0.038c0.017,0.019,0.034,0.034,0.051,0.052      c0.008,0.01,0.018,0.016,0.026,0.021c0.01,0.012,0.02,0.021,0.029,0.032c0.017,0.019,0.034,0.033,0.05,0.052      c0.007,0.007,0.016,0.014,0.023,0.021c0.011,0.014,0.021,0.024,0.032,0.035c0.017,0.02,0.034,0.034,0.051,0.053      c0.008,0.006,0.016,0.014,0.024,0.021c0.01,0.013,0.02,0.024,0.031,0.034c0.017,0.019,0.034,0.033,0.051,0.052      c0.008,0.007,0.017,0.015,0.024,0.021c0.011,0.015,0.021,0.023,0.031,0.035c0.017,0.019,0.033,0.033,0.05,0.051      c0.007,0.006,0.014,0.013,0.021,0.019c0.011,0.015,0.022,0.026,0.034,0.039c0.017,0.019,0.034,0.033,0.051,0.051      c0.008,0.007,0.016,0.015,0.024,0.021c0.01,0.013,0.021,0.021,0.031,0.033c0.017,0.019,0.034,0.033,0.051,0.051      c0.007,0.007,0.015,0.015,0.022,0.021c0.011,0.015,0.022,0.025,0.034,0.037c0.017,0.019,0.033,0.033,0.05,0.05      c0.006,0.006,0.014,0.014,0.021,0.02c0.012,0.013,0.023,0.025,0.035,0.037c0.017,0.019,0.034,0.033,0.051,0.051      c0.007,0.009,0.015,0.015,0.023,0.021c0.011,0.012,0.021,0.022,0.032,0.034c0.017,0.019,0.034,0.034,0.051,0.052      c0.008,0.008,0.017,0.016,0.025,0.021c0.01,0.012,0.021,0.022,0.031,0.032c0.017,0.019,0.034,0.033,0.051,0.052      c0.008,0.008,0.017,0.015,0.025,0.021c0.01,0.014,0.021,0.023,0.031,0.033c0.017,0.02,0.034,0.035,0.051,0.051      c0.006,0.008,0.014,0.014,0.021,0.02c0.011,0.014,0.022,0.025,0.034,0.039c0.017,0.018,0.034,0.031,0.051,0.049      c0.007,0.006,0.014,0.014,0.021,0.02c0.011,0.013,0.022,0.025,0.034,0.037c0.017,0.019,0.034,0.034,0.051,0.051      c0.008,0.009,0.017,0.015,0.024,0.021c0.01,0.012,0.021,0.021,0.031,0.033c0.017,0.02,0.034,0.035,0.051,0.051      c0.007,0.008,0.016,0.014,0.023,0.021c0.011,0.012,0.022,0.022,0.033,0.033c0.018,0.02,0.034,0.035,0.051,0.053      c0.008,0.008,0.017,0.015,0.025,0.021c0.01,0.013,0.021,0.022,0.031,0.033c0.017,0.019,0.034,0.033,0.051,0.051      c0.007,0.007,0.016,0.015,0.023,0.021c0.011,0.013,0.021,0.023,0.032,0.035c0.018,0.019,0.034,0.033,0.051,0.051      c0.008,0.009,0.016,0.015,0.024,0.021c0.011,0.013,0.021,0.023,0.032,0.033c0.017,0.021,0.034,0.035,0.051,0.052      c0.007,0.008,0.016,0.014,0.023,0.021c0.011,0.013,0.021,0.023,0.032,0.035c0.018,0.019,0.034,0.033,0.051,0.051      c0.008,0.009,0.018,0.017,0.027,0.021c0.009,0.012,0.019,0.021,0.028,0.03c0.017,0.019,0.034,0.035,0.051,0.054      c0.007,0.008,0.016,0.014,0.024,0.021c0.01,0.012,0.021,0.021,0.031,0.032c0.018,0.019,0.034,0.033,0.051,0.052      c0.007,0.008,0.016,0.014,0.023,0.021c0.011,0.014,0.022,0.024,0.033,0.035c0.017,0.02,0.034,0.034,0.051,0.053      c0.007,0.006,0.016,0.014,0.024,0.021c0.011,0.013,0.021,0.024,0.032,0.034c0.018,0.02,0.034,0.035,0.051,0.052      c0.007,0.008,0.016,0.015,0.024,0.021c0.011,0.013,0.021,0.023,0.031,0.035c0.017,0.019,0.034,0.033,0.051,0.051      c0.007,0.007,0.016,0.013,0.023,0.021c0.011,0.012,0.021,0.021,0.032,0.034c0.018,0.019,0.033,0.032,0.051,0.052      c0.006,0.006,0.014,0.012,0.021,0.02c0.011,0.014,0.022,0.024,0.034,0.037c0.017,0.018,0.033,0.033,0.051,0.051      c0.006,0.006,0.014,0.012,0.021,0.02c0.011,0.012,0.022,0.025,0.034,0.037c0.017,0.018,0.034,0.033,0.051,0.051      c0.007,0.008,0.016,0.014,0.023,0.021c0.011,0.013,0.021,0.024,0.032,0.034c0.017,0.02,0.034,0.035,0.051,0.052      c0.008,0.009,0.017,0.015,0.024,0.021c0.01,0.012,0.021,0.023,0.031,0.033c0.017,0.02,0.034,0.035,0.051,0.053      c0.007,0.006,0.016,0.012,0.023,0.021c0.011,0.013,0.022,0.024,0.033,0.035c0.017,0.019,0.034,0.034,0.05,0.052      c0.008,0.008,0.018,0.018,0.027,0.021c0.01,0.011,0.019,0.021,0.029,0.031c0.018,0.018,0.034,0.033,0.05,0.051      c0.008,0.008,0.017,0.015,0.024,0.021c0.011,0.012,0.021,0.021,0.031,0.033c0.018,0.02,0.034,0.035,0.051,0.051      c0.008,0.008,0.016,0.016,0.024,0.021c0.011,0.012,0.021,0.021,0.032,0.033c0.017,0.018,0.033,0.033,0.051,0.051      c0.006,0.006,0.014,0.014,0.021,0.02c0.011,0.014,0.022,0.025,0.034,0.037c0.018,0.02,0.033,0.033,0.051,0.051      c0.007,0.008,0.016,0.016,0.024,0.021c0.01,0.012,0.021,0.021,0.031,0.033c0.017,0.02,0.034,0.033,0.051,0.051      c0.007,0.008,0.016,0.014,0.023,0.021c0.011,0.013,0.021,0.022,0.032,0.035c0.017,0.019,0.034,0.033,0.05,0.051      c0.007,0.007,0.016,0.015,0.023,0.021c0.011,0.013,0.021,0.023,0.032,0.037c0.017,0.019,0.034,0.031,0.051,0.051      c0.008,0.006,0.017,0.015,0.024,0.021c0.01,0.012,0.021,0.021,0.031,0.034c0.018,0.019,0.034,0.032,0.051,0.052      c0.008,0.008,0.018,0.017,0.027,0.021c0.009,0.013,0.019,0.022,0.029,0.032c0.018,0.02,0.034,0.033,0.05,0.052      c0.007,0.007,0.016,0.015,0.024,0.021c0.01,0.014,0.021,0.024,0.032,0.035c0.017,0.02,0.034,0.033,0.051,0.053      c0.008,0.008,0.018,0.016,0.027,0.021c0.009,0.01,0.019,0.021,0.028,0.029c0.018,0.02,0.034,0.035,0.051,0.052      c0.008,0.009,0.017,0.017,0.026,0.021c0.01,0.013,0.02,0.021,0.03,0.033c0.017,0.018,0.033,0.033,0.05,0.051      c0.007,0.008,0.016,0.015,0.023,0.021c0.011,0.013,0.022,0.022,0.033,0.035c0.018,0.021,0.034,0.034,0.051,0.052      c0.007,0.008,0.016,0.014,0.023,0.021c0.011,0.012,0.021,0.023,0.032,0.035c0.017,0.018,0.034,0.033,0.051,0.051      c0.007,0.006,0.015,0.014,0.022,0.02c0.011,0.014,0.022,0.025,0.033,0.037c0.017,0.02,0.034,0.033,0.051,0.051      c0.008,0.008,0.017,0.016,0.024,0.021c0.011,0.012,0.021,0.021,0.031,0.033c0.017,0.02,0.034,0.033,0.051,0.051      c0.007,0.008,0.014,0.014,0.021,0.02c0.011,0.014,0.022,0.025,0.034,0.037c0.017,0.018,0.034,0.035,0.051,0.051      c0.007,0.008,0.015,0.014,0.022,0.021c0.011,0.013,0.022,0.024,0.033,0.036c0.017,0.02,0.034,0.033,0.051,0.052      c0.007,0.007,0.016,0.015,0.024,0.021c0.011,0.014,0.021,0.022,0.031,0.034c0.017,0.019,0.034,0.033,0.051,0.052      c0.008,0.008,0.017,0.014,0.024,0.021c0.01,0.012,0.021,0.021,0.031,0.032c0.017,0.019,0.034,0.033,0.051,0.052      c0.007,0.006,0.014,0.012,0.021,0.019c0.011,0.014,0.022,0.026,0.034,0.039c0.017,0.018,0.034,0.032,0.051,0.051      c0.008,0.008,0.016,0.014,0.024,0.021c0.01,0.011,0.021,0.021,0.031,0.031c0.018,0.02,0.034,0.034,0.051,0.053      c0.007,0.006,0.015,0.013,0.022,0.019c0.011,0.014,0.022,0.024,0.033,0.037c0.017,0.02,0.034,0.034,0.051,0.053      c0.008,0.006,0.018,0.014,0.026,0.021c0.01,0.013,0.02,0.022,0.03,0.032c0.017,0.02,0.034,0.035,0.051,0.052      c0.007,0.007,0.014,0.013,0.021,0.019c0.011,0.015,0.022,0.026,0.034,0.039c0.017,0.019,0.034,0.033,0.051,0.052      c0.008,0.006,0.017,0.014,0.025,0.021c0.01,0.012,0.021,0.021,0.031,0.032c0.017,0.019,0.034,0.033,0.051,0.052      c0.007,0.008,0.016,0.014,0.023,0.021c0.011,0.012,0.021,0.021,0.032,0.033c0.017,0.02,0.034,0.033,0.051,0.053      c0.007,0.008,0.015,0.014,0.023,0.02c0.011,0.014,0.021,0.023,0.033,0.037c0.017,0.018,0.034,0.031,0.051,0.051      c0.008,0.008,0.017,0.015,0.025,0.021c0.01,0.014,0.021,0.021,0.031,0.033c0.017,0.019,0.033,0.033,0.05,0.051      c0.007,0.009,0.016,0.016,0.023,0.021c0.011,0.013,0.021,0.021,0.032,0.035c0.017,0.019,0.034,0.034,0.051,0.051      c0.008,0.009,0.017,0.015,0.025,0.021c0.01,0.012,0.02,0.021,0.031,0.033c0.018,0.018,0.034,0.033,0.051,0.051      c0.008,0.008,0.017,0.014,0.025,0.021c0.01,0.011,0.021,0.022,0.031,0.033c0.017,0.019,0.034,0.034,0.051,0.051      c0.007,0.007,0.016,0.015,0.024,0.021c0.01,0.013,0.021,0.022,0.031,0.035c0.017,0.019,0.034,0.033,0.051,0.052      c0.007,0.006,0.016,0.012,0.023,0.021c0.011,0.012,0.022,0.021,0.033,0.033c0.017,0.02,0.034,0.033,0.051,0.053      c0.006,0.006,0.014,0.012,0.02,0.018c0.012,0.014,0.023,0.025,0.036,0.039c0.017,0.018,0.033,0.031,0.05,0.049      c0.007,0.006,0.015,0.014,0.021,0.021c0.011,0.012,0.022,0.024,0.034,0.036c0.018,0.019,0.034,0.033,0.051,0.052      c0.007,0.006,0.015,0.013,0.022,0.019c0.011,0.014,0.022,0.024,0.033,0.037c0.017,0.02,0.034,0.032,0.051,0.051      c0.008,0.01,0.018,0.018,0.026,0.022c0.01,0.011,0.02,0.021,0.03,0.031c0.017,0.019,0.034,0.034,0.05,0.051      c0.008,0.008,0.017,0.015,0.025,0.021c0.01,0.013,0.02,0.021,0.031,0.033c0.018,0.018,0.034,0.033,0.051,0.051      c0.007,0.008,0.016,0.015,0.023,0.021c0.011,0.013,0.021,0.022,0.032,0.035c0.017,0.019,0.034,0.034,0.051,0.051      c0.008,0.009,0.017,0.015,0.025,0.021c0.01,0.013,0.021,0.021,0.031,0.033c0.017,0.021,0.034,0.035,0.051,0.051      c0.007,0.008,0.015,0.015,0.022,0.021c0.011,0.015,0.022,0.024,0.033,0.037c0.017,0.019,0.034,0.032,0.051,0.051      c0.007,0.007,0.016,0.015,0.024,0.021c0.01,0.013,0.021,0.021,0.031,0.033c0.018,0.021,0.034,0.035,0.051,0.053      c0.007,0.007,0.015,0.013,0.023,0.019c0.011,0.015,0.021,0.024,0.032,0.037c0.017,0.019,0.034,0.033,0.051,0.052      c0.008,0.006,0.017,0.014,0.025,0.021c0.01,0.012,0.021,0.021,0.031,0.033c0.017,0.02,0.034,0.033,0.051,0.053      c0.008,0.006,0.018,0.014,0.026,0.021c0.01,0.012,0.02,0.021,0.03,0.031c0.018,0.02,0.034,0.035,0.051,0.053      c0.009,0.008,0.019,0.017,0.028,0.021c0.009,0.01,0.018,0.021,0.028,0.031c0.017,0.018,0.033,0.033,0.051,0.051      c0.008,0.008,0.018,0.017,0.027,0.021c0.009,0.012,0.019,0.021,0.028,0.03c0.017,0.019,0.034,0.035,0.051,0.052      c0.007,0.008,0.015,0.014,0.022,0.021c0.011,0.012,0.022,0.022,0.033,0.034c0.017,0.019,0.034,0.033,0.051,0.052      c0.006,0.006,0.014,0.013,0.021,0.019c0.011,0.014,0.022,0.026,0.034,0.039c0.017,0.018,0.034,0.032,0.051,0.051      c0.007,0.006,0.015,0.014,0.022,0.02c0.011,0.014,0.021,0.023,0.033,0.037c0.017,0.018,0.034,0.031,0.051,0.051      c0.008,0.008,0.017,0.014,0.024,0.021c0.011,0.013,0.021,0.021,0.031,0.033c0.017,0.019,0.034,0.033,0.051,0.051      c0.008,0.009,0.018,0.017,0.026,0.021c0.01,0.013,0.02,0.022,0.03,0.033c0.017,0.019,0.034,0.034,0.051,0.051      c0.007,0.009,0.016,0.015,0.024,0.021c0.01,0.013,0.021,0.023,0.031,0.035c0.017,0.019,0.034,0.033,0.051,0.049      c0.008,0.009,0.017,0.017,0.024,0.021c0.01,0.012,0.021,0.023,0.031,0.035c0.017,0.018,0.033,0.033,0.051,0.051      c0.007,0.008,0.016,0.014,0.023,0.021c0.011,0.013,0.021,0.023,0.032,0.033c0.017,0.021,0.034,0.035,0.051,0.054      c0.007,0.006,0.016,0.014,0.024,0.021c0.01,0.012,0.021,0.022,0.032,0.034c0.018,0.019,0.034,0.033,0.051,0.052      c0.007,0.006,0.015,0.012,0.022,0.02c0.011,0.012,0.022,0.023,0.034,0.035c0.017,0.02,0.034,0.035,0.051,0.053      c0.007,0.006,0.015,0.014,0.022,0.02c0.011,0.014,0.021,0.025,0.032,0.037c0.017,0.018,0.034,0.033,0.051,0.051      c0.008,0.006,0.017,0.017,0.025,0.021c0.01,0.012,0.02,0.021,0.03,0.033c0.017,0.018,0.034,0.033,0.051,0.051      c0.007,0.006,0.016,0.014,0.023,0.021c0.01,0.013,0.021,0.023,0.032,0.035c0.017,0.019,0.034,0.033,0.051,0.051      c0.007,0.006,0.016,0.015,0.023,0.021c0.011,0.015,0.021,0.024,0.032,0.035c0.017,0.021,0.034,0.034,0.051,0.051      c0.007,0.009,0.016,0.017,0.024,0.021c0.01,0.015,0.021,0.023,0.031,0.035c0.017,0.019,0.034,0.033,0.051,0.051      c0.007,0.009,0.016,0.015,0.023,0.021c0.011,0.013,0.021,0.023,0.032,0.035c0.017,0.019,0.034,0.035,0.05,0.052      c0.007,0.008,0.016,0.014,0.023,0.021c0.011,0.015,0.021,0.024,0.033,0.036c0.017,0.02,0.034,0.033,0.051,0.053      c0.007,0.006,0.016,0.014,0.024,0.02c0.011,0.012,0.021,0.023,0.032,0.035c0.017,0.018,0.034,0.033,0.051,0.051      c0.007,0.008,0.016,0.015,0.024,0.021c0.011,0.012,0.021,0.021,0.031,0.031c0.017,0.02,0.034,0.035,0.051,0.053      c0.008,0.008,0.017,0.016,0.025,0.021c0.01,0.012,0.021,0.022,0.031,0.032c0.017,0.019,0.034,0.033,0.051,0.052      c0.007,0.008,0.016,0.014,0.024,0.021c0.01,0.013,0.02,0.022,0.031,0.035c0.017,0.018,0.034,0.032,0.051,0.051      c0.007,0.006,0.016,0.013,0.023,0.021c0.01,0.012,0.021,0.022,0.032,0.037c0.017,0.016,0.034,0.03,0.051,0.049      c0.007,0.008,0.016,0.014,0.023,0.021c0.011,0.013,0.021,0.021,0.032,0.035c0.018,0.019,0.034,0.032,0.051,0.051      c0.007,0.007,0.015,0.013,0.022,0.019c0.011,0.014,0.021,0.024,0.033,0.037c0.018,0.02,0.034,0.033,0.051,0.051      c0.007,0.008,0.016,0.014,0.023,0.021c0.011,0.014,0.021,0.024,0.033,0.035c0.017,0.02,0.034,0.035,0.05,0.053      c0.008,0.006,0.018,0.014,0.026,0.021c0.01,0.012,0.02,0.022,0.03,0.032c0.018,0.021,0.034,0.035,0.051,0.052      c0.007,0.008,0.016,0.014,0.023,0.021c0.011,0.014,0.021,0.023,0.032,0.035c0.017,0.02,0.034,0.033,0.051,0.051      c0.008,0.008,0.016,0.016,0.024,0.021c0.011,0.012,0.021,0.021,0.032,0.033c0.017,0.02,0.034,0.035,0.051,0.053      c0.007,0.006,0.016,0.014,0.023,0.02c0.011,0.013,0.021,0.023,0.033,0.037c0.017,0.019,0.034,0.033,0.051,0.051      c0.007,0.006,0.016,0.015,0.024,0.021c0.01,0.012,0.021,0.021,0.031,0.033c0.018,0.02,0.034,0.033,0.051,0.053      c0.007,0.006,0.016,0.014,0.024,0.021c0.01,0.013,0.021,0.021,0.032,0.033c0.017,0.019,0.033,0.033,0.05,0.053      c0.007,0.006,0.016,0.015,0.024,0.021c0.011,0.013,0.021,0.022,0.031,0.033c0.018,0.019,0.034,0.034,0.051,0.053      c0.008,0.007,0.017,0.015,0.026,0.021c0.01,0.011,0.02,0.022,0.03,0.032c0.017,0.02,0.034,0.033,0.05,0.052      c0.008,0.007,0.017,0.015,0.025,0.021c0.01,0.014,0.021,0.022,0.031,0.035c0.018,0.018,0.034,0.035,0.051,0.053      c0.008,0.006,0.018,0.014,0.027,0.021c0.009,0.01,0.019,0.021,0.028,0.029c0.018,0.02,0.034,0.035,0.051,0.052      c0.007,0.007,0.015,0.015,0.023,0.021c0.011,0.014,0.021,0.023,0.033,0.035c0.017,0.018,0.034,0.035,0.05,0.051      c0.007,0.008,0.016,0.015,0.023,0.021c0.011,0.012,0.021,0.021,0.033,0.033c0.017,0.02,0.034,0.033,0.051,0.053      c0.006,0.006,0.014,0.012,0.021,0.018c0.011,0.015,0.022,0.025,0.034,0.037c0.017,0.021,0.034,0.035,0.051,0.051      c0.006,0.006,0.014,0.013,0.021,0.021c0.011,0.013,0.022,0.024,0.034,0.037c0.017,0.019,0.033,0.032,0.05,0.051      c0.007,0.009,0.016,0.015,0.024,0.021c0.011,0.015,0.021,0.023,0.031,0.035c0.018,0.018,0.034,0.033,0.051,0.051      c0.008,0.008,0.017,0.015,0.025,0.021c0.01,0.013,0.021,0.022,0.031,0.033c0.017,0.021,0.034,0.035,0.051,0.053      c0.007,0.007,0.016,0.013,0.023,0.021c0.011,0.014,0.021,0.022,0.033,0.035c0.017,0.02,0.034,0.035,0.05,0.052      c0.007,0.007,0.016,0.015,0.023,0.021c0.011,0.014,0.021,0.024,0.032,0.035c0.018,0.02,0.034,0.035,0.051,0.051      c0.007,0.008,0.016,0.017,0.024,0.021c0.01,0.014,0.021,0.023,0.031,0.035c0.017,0.018,0.034,0.033,0.051,0.051      c0.007,0.006,0.016,0.014,0.024,0.021c0.01,0.013,0.021,0.022,0.032,0.034c0.017,0.019,0.034,0.031,0.051,0.05      c0.006,0.006,0.014,0.013,0.021,0.019c0.011,0.015,0.022,0.026,0.034,0.039c0.017,0.019,0.034,0.032,0.051,0.052      c0.007,0.006,0.015,0.012,0.022,0.02c0.011,0.013,0.021,0.023,0.033,0.035c0.017,0.019,0.034,0.033,0.051,0.051      c0.008,0.009,0.017,0.017,0.025,0.021c0.01,0.01,0.02,0.021,0.03,0.032c0.018,0.019,0.034,0.032,0.051,0.052      c0.008,0.006,0.018,0.016,0.026,0.021c0.01,0.013,0.02,0.021,0.03,0.033c0.017,0.019,0.034,0.033,0.051,0.051      c0.007,0.007,0.016,0.015,0.023,0.021c0.011,0.015,0.021,0.025,0.032,0.035c0.018,0.021,0.034,0.035,0.051,0.054      c0.008,0.006,0.017,0.014,0.025,0.021c0.01,0.013,0.02,0.022,0.031,0.032c0.017,0.02,0.033,0.035,0.051,0.052      c0.007,0.009,0.016,0.015,0.023,0.021c0.011,0.014,0.021,0.024,0.032,0.035c0.018,0.02,0.034,0.034,0.051,0.051      c0.008,0.008,0.016,0.014,0.022,0.021c0.011,0.014,0.022,0.024,0.032,0.036c0.019,0.019,0.035,0.033,0.052,0.052      c0.007,0.008,0.016,0.015,0.024,0.021c0.01,0.013,0.021,0.023,0.029,0.033c0.02,0.02,0.034,0.035,0.053,0.053      c0.008,0.006,0.016,0.014,0.021,0.02c0.011,0.016,0.021,0.025,0.03,0.036c0.019,0.021,0.033,0.034,0.053,0.053      c0.008,0.006,0.02,0.015,0.023,0.021c0.01,0.012,0.021,0.022,0.029,0.033c0.018,0.019,0.034,0.034,0.051,0.051      c0.008,0.008,0.019,0.016,0.024,0.021c0.01,0.014,0.021,0.023,0.03,0.035c0.019,0.02,0.035,0.034,0.052,0.051      c0.008,0.008,0.019,0.018,0.026,0.021c0.01,0.012,0.02,0.021,0.027,0.033c0.018,0.018,0.033,0.033,0.053,0.051      c0.008,0.007,0.017,0.014,0.021,0.021c0.011,0.011,0.021,0.021,0.031,0.033c0.017,0.019,0.031,0.033,0.051,0.051      c0.007,0.007,0.018,0.015,0.021,0.021c0.012,0.012,0.021,0.025,0.032,0.035c0.019,0.02,0.034,0.035,0.052,0.052      c0.008,0.007,0.018,0.015,0.022,0.021c0.013,0.014,0.021,0.023,0.032,0.035c0.017,0.02,0.031,0.035,0.051,0.051      c0.007,0.01,0.018,0.016,0.021,0.021c0.012,0.014,0.021,0.023,0.031,0.035c0.02,0.02,0.034,0.033,0.051,0.052      c0.01,0.009,0.021,0.017,0.028,0.022c0.011,0.011,0.019,0.021,0.027,0.028c0.019,0.019,0.032,0.035,0.05,0.054      c0.01,0.006,0.018,0.015,0.025,0.021c0.01,0.013,0.021,0.022,0.029,0.034c0.018,0.018,0.032,0.033,0.051,0.053      c0.01,0.008,0.02,0.016,0.026,0.021c0.011,0.01,0.021,0.021,0.027,0.028c0.018,0.021,0.034,0.035,0.051,0.054      c0.008,0.006,0.019,0.014,0.022,0.021c0.012,0.013,0.021,0.022,0.031,0.033c0.019,0.021,0.032,0.034,0.051,0.053      c0.008,0.006,0.017,0.013,0.022,0.019c0.011,0.014,0.021,0.026,0.032,0.037c0.018,0.018,0.033,0.032,0.05,0.051      c0.009,0.007,0.017,0.014,0.022,0.021c0.012,0.012,0.021,0.023,0.031,0.035c0.02,0.018,0.034,0.032,0.053,0.051      c0.008,0.006,0.015,0.014,0.021,0.02c0.012,0.013,0.021,0.023,0.033,0.037c0.018,0.018,0.033,0.031,0.051,0.051      c0.008,0.007,0.018,0.015,0.025,0.021c0.01,0.012,0.02,0.021,0.029,0.032c0.018,0.021,0.035,0.034,0.051,0.052      c0.009,0.008,0.02,0.016,0.027,0.021c0.01,0.012,0.02,0.022,0.027,0.032c0.02,0.019,0.033,0.035,0.052,0.052      c0.009,0.008,0.019,0.016,0.023,0.021c0.011,0.012,0.021,0.021,0.028,0.033c0.02,0.018,0.033,0.033,0.053,0.051      c0.008,0.008,0.016,0.014,0.021,0.021c0.012,0.013,0.021,0.021,0.031,0.035c0.018,0.019,0.033,0.033,0.051,0.051      c0.01,0.007,0.02,0.016,0.027,0.021c0.01,0.014,0.02,0.021,0.027,0.032c0.018,0.021,0.035,0.035,0.051,0.052      c0.01,0.01,0.02,0.017,0.027,0.021c0.01,0.011,0.02,0.021,0.027,0.032c0.02,0.018,0.033,0.034,0.053,0.051      c0.006,0.006,0.012,0.012,0.02,0.019c0.012,0.014,0.023,0.026,0.035,0.039c0.018,0.019,0.033,0.032,0.051,0.051      c0.01,0.009,0.02,0.016,0.027,0.021c0.01,0.012,0.02,0.021,0.028,0.032c0.019,0.017,0.032,0.034,0.052,0.052      c0.006,0.006,0.016,0.012,0.021,0.021c0.011,0.012,0.021,0.021,0.029,0.033c0.019,0.02,0.033,0.033,0.053,0.053      c0.009,0.008,0.02,0.016,0.025,0.021c0.011,0.01,0.02,0.021,0.027,0.03c0.02,0.019,0.033,0.035,0.051,0.052      c0.01,0.008,0.02,0.016,0.025,0.021c0.012,0.012,0.021,0.021,0.029,0.033c0.018,0.018,0.033,0.032,0.051,0.051      c0.008,0.006,0.016,0.013,0.021,0.02c0.012,0.012,0.021,0.023,0.032,0.035c0.019,0.018,0.035,0.034,0.052,0.051      c0.008,0.008,0.018,0.016,0.024,0.021c0.01,0.012,0.021,0.023,0.03,0.033c0.019,0.019,0.031,0.035,0.051,0.053      c0.007,0.006,0.016,0.014,0.021,0.02c0.014,0.014,0.021,0.024,0.032,0.035c0.019,0.02,0.035,0.034,0.052,0.051      c0.008,0.008,0.02,0.016,0.024,0.021c0.013,0.012,0.021,0.021,0.03,0.033c0.019,0.018,0.033,0.033,0.052,0.051      c0.008,0.007,0.017,0.014,0.022,0.02c0.01,0.014,0.021,0.024,0.029,0.035c0.02,0.02,0.033,0.034,0.053,0.051      c0.008,0.01,0.018,0.017,0.023,0.021c0.01,0.012,0.021,0.023,0.029,0.033c0.018,0.02,0.033,0.035,0.051,0.052      c0.008,0.007,0.018,0.015,0.023,0.021c0.012,0.015,0.021,0.023,0.031,0.035c0.018,0.021,0.034,0.035,0.051,0.053      c0.01,0.008,0.02,0.016,0.026,0.021c0.011,0.014,0.021,0.021,0.028,0.033c0.018,0.02,0.033,0.033,0.052,0.051      c0.006,0.007,0.015,0.016,0.021,0.021c0.013,0.012,0.021,0.024,0.033,0.035c0.019,0.019,0.032,0.034,0.051,0.053      c0.009,0.006,0.018,0.013,0.022,0.02c0.013,0.012,0.021,0.023,0.031,0.035c0.019,0.018,0.034,0.034,0.051,0.051      c0.009,0.008,0.019,0.014,0.024,0.021c0.011,0.012,0.021,0.023,0.029,0.033c0.019,0.019,0.033,0.035,0.053,0.052      c0.007,0.007,0.017,0.013,0.021,0.021c0.012,0.012,0.021,0.023,0.031,0.034c0.018,0.019,0.034,0.034,0.051,0.052      c0.008,0.006,0.018,0.016,0.023,0.021c0.012,0.011,0.021,0.021,0.031,0.033c0.017,0.019,0.032,0.035,0.051,0.052      c0.007,0.007,0.018,0.015,0.022,0.021c0.011,0.014,0.021,0.022,0.031,0.035c0.019,0.02,0.033,0.033,0.051,0.051      c0.009,0.008,0.019,0.017,0.025,0.021c0.012,0.014,0.021,0.021,0.028,0.033c0.019,0.02,0.033,0.033,0.051,0.051      c0.009,0.008,0.021,0.016,0.025,0.021c0.012,0.013,0.021,0.021,0.029,0.033c0.02,0.018,0.032,0.032,0.051,0.051      c0.008,0.006,0.016,0.014,0.022,0.02c0.011,0.014,0.021,0.025,0.032,0.037c0.018,0.018,0.033,0.033,0.049,0.051      c0.012,0.008,0.021,0.016,0.027,0.021c0.01,0.012,0.021,0.021,0.028,0.033c0.019,0.017,0.033,0.032,0.052,0.051      c0.008,0.006,0.016,0.013,0.021,0.019c0.012,0.013,0.021,0.024,0.032,0.036c0.019,0.018,0.033,0.034,0.052,0.051      c0.008,0.008,0.018,0.014,0.024,0.021c0.01,0.012,0.021,0.022,0.029,0.033c0.018,0.019,0.033,0.035,0.051,0.053      c0.008,0.007,0.019,0.014,0.023,0.021c0.012,0.013,0.021,0.021,0.029,0.032c0.02,0.02,0.035,0.034,0.053,0.052      c0.008,0.009,0.018,0.017,0.025,0.021c0.01,0.012,0.021,0.021,0.028,0.032c0.017,0.019,0.033,0.033,0.052,0.052      c0.006,0.006,0.014,0.013,0.021,0.021c0.012,0.012,0.021,0.023,0.033,0.034c0.018,0.019,0.033,0.034,0.051,0.054      c0.008,0.006,0.016,0.012,0.021,0.019c0.012,0.013,0.021,0.024,0.032,0.036c0.019,0.019,0.033,0.033,0.052,0.052      c0.008,0.007,0.02,0.014,0.024,0.021c0.01,0.012,0.021,0.021,0.03,0.033c0.017,0.018,0.033,0.032,0.052,0.051      c0.006,0.006,0.017,0.014,0.022,0.021c0.01,0.012,0.021,0.022,0.029,0.035c0.02,0.018,0.035,0.032,0.053,0.051      c0.008,0.007,0.019,0.017,0.023,0.021c0.012,0.013,0.021,0.021,0.029,0.033c0.018,0.018,0.033,0.033,0.051,0.051      c0.008,0.006,0.02,0.015,0.023,0.021c0.012,0.014,0.021,0.023,0.03,0.035c0.019,0.02,0.033,0.033,0.052,0.05      c0.008,0.008,0.018,0.015,0.022,0.021c0.013,0.013,0.021,0.021,0.031,0.035c0.018,0.019,0.034,0.033,0.051,0.051      c0.01,0.008,0.019,0.015,0.024,0.021c0.011,0.014,0.021,0.021,0.031,0.034c0.019,0.019,0.031,0.034,0.051,0.051      c0.006,0.007,0.015,0.015,0.021,0.021c0.013,0.014,0.021,0.024,0.033,0.037c0.019,0.019,0.034,0.033,0.051,0.051      c0.009,0.007,0.017,0.013,0.021,0.02c0.013,0.014,0.021,0.024,0.033,0.036c0.021,0.019,0.033,0.034,0.051,0.052      c0.009,0.006,0.017,0.014,0.021,0.021c0.012,0.012,0.021,0.024,0.033,0.034c0.018,0.02,0.033,0.035,0.051,0.053      c0.008,0.007,0.018,0.015,0.023,0.021c0.012,0.012,0.021,0.022,0.029,0.034c0.02,0.019,0.035,0.033,0.053,0.052      c0.008,0.006,0.016,0.015,0.021,0.021c0.013,0.012,0.021,0.022,0.033,0.035c0.019,0.018,0.032,0.032,0.051,0.051      c0.009,0.007,0.019,0.017,0.024,0.021c0.011,0.014,0.021,0.021,0.029,0.033c0.019,0.019,0.033,0.033,0.051,0.051      c0.009,0.009,0.019,0.017,0.025,0.021c0.01,0.014,0.021,0.021,0.029,0.033c0.018,0.02,0.033,0.031,0.051,0.051      c0.008,0.007,0.018,0.016,0.023,0.021c0.012,0.013,0.021,0.022,0.029,0.035c0.02,0.019,0.035,0.031,0.051,0.051      c0.01,0.008,0.02,0.015,0.025,0.021c0.012,0.013,0.021,0.021,0.03,0.033c0.017,0.021,0.033,0.032,0.052,0.051      c0.008,0.009,0.016,0.017,0.022,0.021c0.01,0.013,0.021,0.023,0.03,0.035c0.019,0.019,0.033,0.033,0.051,0.051      c0.009,0.009,0.02,0.017,0.027,0.021c0.01,0.012,0.021,0.021,0.027,0.031c0.018,0.018,0.033,0.035,0.051,0.051      c0.006,0.008,0.016,0.014,0.021,0.02c0.012,0.015,0.021,0.025,0.031,0.037c0.02,0.019,0.033,0.035,0.053,0.052      c0.008,0.007,0.016,0.014,0.021,0.021c0.012,0.012,0.021,0.022,0.03,0.034c0.019,0.019,0.035,0.034,0.052,0.052      c0.01,0.006,0.02,0.016,0.024,0.021c0.01,0.011,0.021,0.021,0.03,0.033c0.017,0.019,0.033,0.033,0.052,0.052      c0.006,0.006,0.015,0.013,0.021,0.021c0.012,0.012,0.021,0.023,0.033,0.036c0.018,0.017,0.033,0.032,0.049,0.052      c0.01,0.006,0.02,0.015,0.025,0.021c0.012,0.013,0.021,0.021,0.031,0.032c0.018,0.019,0.031,0.033,0.051,0.052      c0.008,0.006,0.016,0.015,0.021,0.021c0.012,0.012,0.021,0.023,0.032,0.035c0.019,0.02,0.032,0.033,0.052,0.053      c0.008,0.006,0.017,0.014,0.023,0.021c0.011,0.013,0.021,0.022,0.029,0.034c0.018,0.018,0.033,0.033,0.053,0.051      c0.006,0.008,0.018,0.014,0.021,0.02c0.012,0.015,0.021,0.023,0.03,0.035c0.019,0.02,0.035,0.035,0.052,0.051      c0.01,0.01,0.02,0.018,0.026,0.022c0.01,0.011,0.021,0.021,0.026,0.032c0.021,0.018,0.035,0.035,0.054,0.051      c0.006,0.008,0.017,0.014,0.021,0.021c0.012,0.012,0.021,0.021,0.032,0.035c0.017,0.018,0.032,0.033,0.052,0.051      c0.008,0.007,0.019,0.015,0.023,0.021c0.012,0.013,0.021,0.021,0.029,0.032c0.019,0.02,0.033,0.034,0.051,0.053      c0.009,0.006,0.018,0.012,0.021,0.019c0.012,0.013,0.021,0.024,0.033,0.036c0.018,0.019,0.032,0.033,0.051,0.052      c0.01,0.007,0.018,0.015,0.024,0.021c0.011,0.014,0.021,0.022,0.031,0.034c0.017,0.019,0.032,0.033,0.049,0.052      c0.01,0.008,0.021,0.017,0.026,0.021c0.011,0.011,0.021,0.021,0.029,0.031c0.018,0.018,0.032,0.033,0.051,0.052      c0.008,0.007,0.017,0.013,0.022,0.021c0.011,0.012,0.021,0.023,0.03,0.034c0.018,0.019,0.033,0.034,0.052,0.052      c0.008,0.008,0.017,0.015,0.022,0.021c0.012,0.014,0.021,0.021,0.031,0.033c0.018,0.018,0.033,0.033,0.051,0.053      c0.008,0.007,0.018,0.016,0.025,0.021c0.01,0.013,0.021,0.021,0.028,0.033c0.018,0.019,0.034,0.032,0.051,0.051      c0.009,0.006,0.021,0.015,0.026,0.021c0.011,0.013,0.021,0.021,0.027,0.032c0.019,0.02,0.034,0.033,0.051,0.052      c0.011,0.007,0.021,0.017,0.026,0.021c0.011,0.013,0.021,0.022,0.028,0.033c0.02,0.019,0.033,0.034,0.052,0.053      c0.007,0.007,0.017,0.014,0.021,0.02c0.013,0.014,0.021,0.023,0.033,0.036c0.019,0.019,0.034,0.033,0.051,0.051      c0.009,0.009,0.021,0.017,0.026,0.021c0.011,0.013,0.019,0.021,0.028,0.031c0.02,0.019,0.033,0.035,0.052,0.053      c0.007,0.007,0.017,0.014,0.022,0.021c0.01,0.013,0.021,0.023,0.029,0.035c0.02,0.019,0.034,0.033,0.053,0.051      c0.008,0.009,0.018,0.015,0.023,0.021c0.012,0.012,0.021,0.021,0.029,0.032c0.02,0.019,0.033,0.035,0.052,0.052      c0.007,0.008,0.019,0.015,0.021,0.021c0.014,0.012,0.021,0.022,0.033,0.034c0.017,0.019,0.033,0.033,0.051,0.052      c0.009,0.008,0.02,0.016,0.025,0.021c0.01,0.012,0.021,0.021,0.029,0.031c0.018,0.02,0.033,0.033,0.051,0.053      c0.008,0.006,0.016,0.013,0.021,0.02c0.012,0.014,0.021,0.023,0.033,0.035c0.018,0.02,0.033,0.034,0.051,0.053      c0.006,0.006,0.015,0.012,0.021,0.018c0.013,0.014,0.022,0.025,0.035,0.039c0.019,0.018,0.032,0.033,0.05,0.051      c0.01,0.007,0.018,0.014,0.023,0.021c0.012,0.012,0.021,0.021,0.031,0.033c0.018,0.018,0.033,0.032,0.051,0.051      c0.009,0.008,0.018,0.014,0.023,0.021c0.01,0.013,0.02,0.024,0.03,0.034c0.019,0.02,0.035,0.035,0.052,0.052      c0.008,0.007,0.018,0.015,0.023,0.021c0.011,0.014,0.021,0.023,0.029,0.035c0.02,0.018,0.035,0.033,0.052,0.051      c0.008,0.008,0.016,0.014,0.021,0.021c0.012,0.015,0.021,0.022,0.033,0.037c0.018,0.019,0.034,0.034,0.053,0.051      c0.008,0.009,0.019,0.017,0.024,0.021c0.01,0.013,0.021,0.021,0.028,0.032c0.018,0.019,0.033,0.033,0.052,0.052      c0.008,0.008,0.019,0.016,0.024,0.021c0.01,0.014,0.021,0.021,0.028,0.033c0.019,0.02,0.034,0.033,0.052,0.053      c0.008,0.006,0.016,0.014,0.021,0.02c0.011,0.013,0.021,0.023,0.031,0.037c0.019,0.018,0.035,0.033,0.052,0.051      c0.008,0.007,0.019,0.014,0.024,0.021c0.01,0.01,0.021,0.021,0.029,0.031c0.02,0.018,0.033,0.034,0.053,0.053      c0.006,0.006,0.015,0.012,0.021,0.019c0.012,0.013,0.021,0.024,0.031,0.036c0.019,0.019,0.035,0.033,0.053,0.052      c0.008,0.007,0.018,0.015,0.023,0.021c0.011,0.015,0.021,0.022,0.03,0.035c0.019,0.019,0.033,0.034,0.052,0.051      c0.008,0.009,0.018,0.017,0.022,0.021c0.013,0.014,0.021,0.023,0.03,0.035c0.018,0.018,0.033,0.033,0.052,0.051      c0.008,0.008,0.019,0.016,0.024,0.021c0.012,0.013,0.021,0.021,0.029,0.033c0.018,0.019,0.033,0.032,0.051,0.051      c0.01,0.007,0.02,0.015,0.025,0.021c0.012,0.013,0.021,0.022,0.029,0.032c0.017,0.02,0.033,0.035,0.051,0.052      c0.007,0.007,0.016,0.013,0.021,0.017c0.013,0.016,0.021,0.027,0.035,0.039c0.019,0.02,0.034,0.033,0.051,0.052      c0.009,0.009,0.019,0.015,0.024,0.021c0.011,0.012,0.021,0.021,0.03,0.033c0.018,0.018,0.033,0.033,0.051,0.051      c0.008,0.008,0.018,0.014,0.021,0.021c0.012,0.013,0.021,0.024,0.031,0.034c0.02,0.02,0.034,0.035,0.051,0.053      c0.011,0.008,0.02,0.016,0.027,0.021c0.01,0.012,0.021,0.022,0.027,0.032c0.02,0.019,0.034,0.033,0.052,0.052      c0.009,0.008,0.017,0.014,0.022,0.021c0.011,0.012,0.021,0.024,0.031,0.036c0.018,0.017,0.032,0.033,0.051,0.05      c0.008,0.008,0.016,0.015,0.021,0.021c0.013,0.013,0.021,0.024,0.033,0.037c0.019,0.019,0.034,0.032,0.051,0.051      c0.009,0.006,0.021,0.017,0.026,0.021c0.01,0.012,0.021,0.021,0.027,0.032c0.019,0.019,0.035,0.032,0.053,0.052      c0.007,0.006,0.015,0.014,0.021,0.02c0.01,0.014,0.021,0.023,0.031,0.037c0.018,0.02,0.034,0.031,0.05,0.051      c0.009,0.006,0.017,0.014,0.022,0.02c0.011,0.014,0.021,0.023,0.033,0.037c0.018,0.018,0.033,0.033,0.052,0.051      c0.007,0.008,0.016,0.014,0.021,0.021c0.014,0.013,0.022,0.022,0.033,0.034c0.018,0.02,0.033,0.035,0.051,0.052      c0.008,0.009,0.018,0.015,0.024,0.021c0.011,0.012,0.021,0.023,0.03,0.033c0.018,0.02,0.033,0.035,0.052,0.053      c0.006,0.006,0.013,0.01,0.021,0.017c0.012,0.015,0.021,0.026,0.035,0.038c0.018,0.02,0.033,0.035,0.051,0.053      c0.01,0.008,0.02,0.016,0.025,0.021c0.01,0.012,0.021,0.021,0.029,0.032c0.018,0.019,0.033,0.033,0.051,0.052      c0.008,0.008,0.018,0.016,0.025,0.021c0.011,0.013,0.021,0.021,0.028,0.03c0.019,0.021,0.034,0.035,0.052,0.054      c0.008,0.006,0.018,0.015,0.023,0.021c0.012,0.013,0.021,0.023,0.029,0.035c0.018,0.016,0.033,0.031,0.053,0.051      c0.008,0.006,0.018,0.016,0.021,0.021c0.013,0.014,0.021,0.021,0.031,0.035c0.018,0.018,0.033,0.031,0.051,0.051      c0.01,0.006,0.019,0.016,0.025,0.021c0.01,0.012,0.02,0.021,0.027,0.033c0.02,0.018,0.035,0.033,0.053,0.051      c0.008,0.008,0.02,0.016,0.025,0.021c0.011,0.012,0.021,0.021,0.029,0.031c0.018,0.018,0.031,0.034,0.051,0.051      c0.006,0.006,0.016,0.014,0.021,0.02c0.013,0.014,0.021,0.025,0.033,0.039c0.018,0.018,0.034,0.031,0.051,0.051      c0.008,0.008,0.021,0.016,0.026,0.021c0.011,0.012,0.021,0.021,0.027,0.032c0.019,0.019,0.035,0.032,0.051,0.052      c0.01,0.006,0.021,0.014,0.027,0.021c0.01,0.014,0.02,0.022,0.028,0.032c0.017,0.021,0.032,0.035,0.051,0.052      c0.009,0.008,0.019,0.016,0.024,0.021c0.011,0.014,0.021,0.023,0.029,0.033c0.019,0.018,0.032,0.035,0.051,0.051      c0.009,0.008,0.019,0.017,0.022,0.021c0.013,0.012,0.021,0.021,0.031,0.033c0.019,0.02,0.032,0.035,0.051,0.053      c0.009,0.006,0.017,0.014,0.021,0.02c0.013,0.012,0.021,0.025,0.033,0.035c0.019,0.02,0.035,0.035,0.051,0.053      c0.009,0.006,0.019,0.015,0.025,0.021c0.01,0.012,0.02,0.021,0.028,0.034c0.019,0.019,0.034,0.032,0.054,0.052      c0.006,0.006,0.016,0.012,0.021,0.021c0.011,0.012,0.021,0.021,0.031,0.033c0.019,0.02,0.032,0.035,0.051,0.053      c0.009,0.006,0.018,0.014,0.024,0.021c0.011,0.013,0.021,0.022,0.029,0.032c0.019,0.02,0.032,0.035,0.051,0.052      c0.009,0.009,0.017,0.015,0.022,0.021c0.011,0.013,0.021,0.023,0.031,0.035c0.019,0.019,0.033,0.033,0.051,0.052      c0.009,0.008,0.019,0.017,0.025,0.021c0.012,0.012,0.021,0.021,0.028,0.033c0.019,0.018,0.035,0.033,0.052,0.051      c0.008,0.008,0.018,0.014,0.024,0.021c0.011,0.013,0.021,0.021,0.03,0.033c0.019,0.019,0.033,0.035,0.052,0.051      c0.006,0.009,0.017,0.015,0.022,0.021c0.01,0.014,0.021,0.023,0.03,0.036c0.019,0.019,0.033,0.033,0.051,0.052      c0.009,0.006,0.017,0.015,0.023,0.021c0.01,0.015,0.021,0.022,0.03,0.035c0.017,0.018,0.033,0.032,0.052,0.051      c0.008,0.008,0.018,0.017,0.024,0.021c0.01,0.012,0.021,0.021,0.029,0.033c0.02,0.018,0.034,0.033,0.051,0.051      c0.008,0.008,0.018,0.016,0.022,0.021c0.013,0.012,0.021,0.021,0.03,0.032c0.02,0.019,0.035,0.034,0.052,0.054      c0.008,0.006,0.019,0.014,0.026,0.021c0.01,0.012,0.021,0.021,0.028,0.031c0.017,0.02,0.033,0.035,0.052,0.053      c0.008,0.008,0.019,0.016,0.024,0.021c0.01,0.013,0.021,0.021,0.028,0.033c0.019,0.019,0.033,0.032,0.052,0.051      c0.008,0.009,0.018,0.017,0.024,0.021c0.01,0.013,0.021,0.021,0.029,0.033c0.018,0.019,0.032,0.032,0.051,0.051      c0.008,0.007,0.016,0.015,0.021,0.021c0.013,0.015,0.021,0.025,0.033,0.035c0.019,0.021,0.035,0.033,0.051,0.054      c0.009,0.008,0.021,0.016,0.029,0.021c0.008,0.012,0.019,0.021,0.025,0.03c0.02,0.019,0.033,0.035,0.051,0.052      c0.008,0.008,0.018,0.016,0.023,0.021c0.01,0.012,0.021,0.023,0.029,0.035c0.018,0.018,0.035,0.033,0.051,0.051      c0.01,0.006,0.018,0.014,0.025,0.021c0.01,0.013,0.021,0.021,0.028,0.033c0.019,0.019,0.035,0.033,0.054,0.051      c0.006,0.009,0.014,0.015,0.021,0.021c0.01,0.012,0.021,0.023,0.032,0.036c0.017,0.019,0.033,0.033,0.052,0.052      c0.008,0.006,0.019,0.015,0.024,0.021c0.01,0.015,0.021,0.022,0.027,0.033c0.02,0.02,0.035,0.034,0.053,0.051      c0.008,0.008,0.019,0.017,0.025,0.021c0.01,0.015,0.021,0.022,0.027,0.033c0.018,0.021,0.035,0.035,0.053,0.051      c0.008,0.008,0.018,0.017,0.023,0.021c0.01,0.012,0.021,0.023,0.028,0.033c0.019,0.018,0.035,0.035,0.052,0.051      c0.008,0.006,0.016,0.012,0.021,0.018c0.013,0.015,0.021,0.027,0.032,0.039c0.019,0.019,0.035,0.033,0.054,0.051      c0.006,0.009,0.017,0.015,0.022,0.021c0.01,0.012,0.021,0.023,0.029,0.034c0.02,0.019,0.033,0.035,0.053,0.052      c0.008,0.008,0.019,0.018,0.023,0.021c0.012,0.012,0.021,0.021,0.029,0.033c0.018,0.02,0.033,0.035,0.053,0.051      c0.006,0.006,0.016,0.012,0.021,0.019c0.013,0.015,0.021,0.026,0.035,0.038c0.017,0.018,0.031,0.033,0.051,0.051      c0.007,0.008,0.017,0.014,0.021,0.021c0.012,0.013,0.021,0.022,0.031,0.034c0.02,0.02,0.033,0.033,0.051,0.052      c0.021,0.021,0.051,0.041,0.074,0.063c0.021,0.017,0.039,0.028,0.061,0.045c0.008,0.004,0.014,0.011,0.021,0.017l13.711,9.144      c0.217,0.141,0.467,0.213,0.715,0.213c0.25,0,0.5-0.072,0.715-0.219l13.714-9.142c0.008-0.007,0.016-0.013,0.021-0.017      c0.021-0.018,0.038-0.029,0.06-0.045c0.025-0.021,0.053-0.041,0.072-0.063c0.021-0.019,0.034-0.033,0.051-0.052      c0.021-0.021,0.045-0.047,0.063-0.069c0.019-0.019,0.03-0.035,0.046-0.056c0.021-0.024,0.035-0.053,0.055-0.078      c0.016-0.021,0.024-0.038,0.037-0.061c0.018-0.029,0.028-0.059,0.045-0.086c0.01-0.021,0.021-0.041,0.026-0.063      c0.015-0.031,0.022-0.063,0.032-0.096c0.006-0.021,0.018-0.041,0.021-0.063c0.01-0.035,0.02-0.071,0.021-0.106      c0.002-0.021,0.008-0.037,0.011-0.058C78.996,68.511,79,68.454,79,68.396v-9.143C79,59.2,78.996,59.145,78.988,59.088z" fill="url(#SVGID_3_)"/></g></g></g></g><path d="M46.979,27.033c-0.006-0.036-0.014-0.072-0.021-0.107c-0.006-0.021-0.015-0.042-0.021-0.063  c-0.013-0.031-0.021-0.063-0.033-0.094c-0.008-0.021-0.021-0.042-0.026-0.063c-0.015-0.029-0.026-0.058-0.045-0.086  c-0.013-0.021-0.022-0.04-0.037-0.06c-0.019-0.026-0.032-0.053-0.055-0.078c-0.015-0.02-0.027-0.037-0.043-0.056  c-0.021-0.024-0.044-0.047-0.064-0.07c-0.018-0.017-0.032-0.034-0.051-0.05c-0.022-0.021-0.049-0.042-0.074-0.062  c-0.021-0.015-0.036-0.03-0.059-0.044c-0.007-0.005-0.015-0.011-0.021-0.017l-13.714-9.139c-0.433-0.288-0.997-0.288-1.43,0  l-13.711,9.14c-0.008,0.006-0.014,0.012-0.021,0.017c-0.02,0.014-0.039,0.029-0.059,0.044c-0.024,0.02-0.049,0.04-0.073,0.062  c-0.017,0.015-0.034,0.033-0.051,0.049c-0.022,0.023-0.044,0.046-0.064,0.07c-0.015,0.019-0.03,0.036-0.044,0.056  c-0.02,0.026-0.037,0.052-0.055,0.078c-0.013,0.02-0.025,0.039-0.037,0.06c-0.016,0.028-0.03,0.057-0.044,0.086  c-0.01,0.021-0.02,0.041-0.029,0.063c-0.012,0.031-0.023,0.063-0.033,0.094c-0.007,0.021-0.014,0.042-0.02,0.063  c-0.009,0.035-0.016,0.071-0.022,0.107c-0.003,0.019-0.008,0.037-0.011,0.056C17.003,27.144,17,27.201,17,27.258v9.141  c0,0.058,0.004,0.112,0.011,0.168c0.003,0.021,0.007,0.037,0.011,0.058c0.006,0.035,0.013,0.071,0.022,0.106  c0.006,0.021,0.013,0.043,0.02,0.063c0.01,0.031,0.021,0.063,0.033,0.097c0.009,0.021,0.019,0.041,0.029,0.063  c0.014,0.027,0.028,0.061,0.044,0.086c0.011,0.021,0.024,0.039,0.037,0.063c0.018,0.023,0.035,0.053,0.055,0.078  c0.014,0.021,0.029,0.035,0.044,0.055c0.021,0.021,0.042,0.05,0.064,0.07c0.017,0.018,0.034,0.031,0.051,0.051  c0.023,0.021,0.048,0.041,0.073,0.062c0.02,0.019,0.039,0.03,0.059,0.045c0.007,0.006,0.014,0.013,0.021,0.019l13.711,9.143  c0.217,0.138,0.466,0.21,0.715,0.21s0.499-0.072,0.715-0.217l13.711-9.142c0.008-0.008,0.016-0.014,0.021-0.02  c0.02-0.016,0.039-0.025,0.059-0.045c0.025-0.021,0.051-0.039,0.072-0.063c0.02-0.019,0.035-0.033,0.051-0.052  c0.023-0.021,0.045-0.047,0.064-0.069c0.016-0.019,0.031-0.035,0.045-0.056c0.02-0.024,0.037-0.053,0.055-0.078  c0.014-0.021,0.025-0.038,0.035-0.061c0.018-0.029,0.031-0.058,0.045-0.087c0.01-0.021,0.021-0.041,0.029-0.063  c0.012-0.029,0.021-0.063,0.033-0.097c0.006-0.021,0.014-0.041,0.02-0.063c0.01-0.035,0.018-0.072,0.023-0.105  c0.002-0.021,0.008-0.037,0.01-0.059C46.996,36.512,47,36.455,47,36.398v-9.142c0-0.057-0.004-0.113-0.012-0.169  C46.986,27.07,46.98,27.052,46.979,27.033z M32,34.877l-4.559-3.049L32,28.778l4.561,3.05L32,34.877z M30.71,26.539l-5.589,3.738  l-4.512-3.017l10.101-6.734V26.539z M22.803,31.828l-3.225,2.156v-4.313L22.803,31.828z M25.122,33.379l5.589,3.738v6.012  L20.61,36.396L25.122,33.379z M33.289,37.117l5.588-3.738l4.514,3.018l-10.102,6.732V37.117z M41.195,31.828l3.227-2.157v4.313  L41.195,31.828z M38.877,30.277l-5.588-3.738v-6.014l10.102,6.734L38.877,30.277z" fill="#FFFFFF" id="wtf"/></svg>