<svg width="512" height="512" xmlns="http://www.w3.org/2000/svg">

 <g>
  <title>background</title>
  <rect fill="none" id="canvas_background" height="402" width="582" y="-1" x="-1"/>
 </g>
 <g>
  <title>Layer 1</title>
  <g id="svg_1">
   <path id="svg_2" fill="#988a4d" d="m77.744003,101.496002l33.004997,369.460999l148.159996,41.042999l148.290009,-41.022003l33.056976,-369.481995l-362.511978,0zm290.904007,120.819l-4.131012,46.402985l-12.453003,139.154022l-93.074982,25.733002l-0.062012,0.020996l-93.013992,-25.753998l-6.490997,-72.78299l45.570999,0l3.376999,37.755005l50.568008,13.645996l0.048981,-0.016998l50.628021,-13.652008l6.903992,-62.881989l-159.276001,0.414001l-4.5,-43l167.613007,-1.955017l3.386993,-46.044998l-175.5,0.5l-2.963989,-42.826996l113.708984,0l113.718018,0l-4.058014,45.288986z"/>
   <polygon id="svg_3" points="77.744,101.496 77.744,101.496 77.744,101.495  " fill="#988a4d"/>
   <polygon id="svg_4" points="205.313,63.114 176.229,63.114 176.3,19.488 205.313,19.488 205.313,3.205 159.945,3.205    159.945,19.488 160.017,19.488 159.946,63.114 159.945,63.114 159.945,79.397 205.313,79.397  " fill="#988a4d"/>
   <polygon id="svg_5" points="281.717,62.958 245.629,19.394 279.369,19.394 279.369,3.205 221.274,3.205 221.274,18.666    257.523,62.229 218.927,62.229 218.927,78.418 281.717,78.418  " fill="#988a4d"/>
   <polygon id="svg_6" points="357.055,62.958 320.967,19.394 354.707,19.394 354.707,3.205 296.613,3.205 296.613,18.666    332.861,62.229 294.266,62.229 294.266,78.418 357.055,78.418  " fill="#988a4d"/>
  </g>
 </g>
</svg>