<svg width="100" height="100" xmlns="http://www.w3.org/2000/svg">
 <g>
  <title>background</title>
  <rect x="-1" y="-1" width="102" height="102" id="canvas_background" fill="none"/>
 </g>

 <g>
  <title>Layer 1</title>
  <path clip-rule="evenodd" d="m49.549465,0.645173c-27.358318,0 -49.541072,22.626986 -49.541072,50.539496c0,22.326851 14.191759,41.270081 33.884296,47.955185c2.477829,0.461258 3.258343,-1.036263 3.258343,-2.375809c0,-1.200531 0.02478,-4.555717 0,-8.773399c-13.779819,3.055054 -16.635515,-6.656662 -16.635515,-6.656662c-2.251726,-5.838417 -5.497681,-7.392792 -5.497681,-7.392792c-4.497258,-3.134041 0.337604,-3.074013 0.337604,-3.074013c4.971141,0.357002 7.591445,5.209702 7.591445,5.209702c4.419825,7.718201 11.593136,5.487732 14.414764,4.19873c0.452202,-3.266731 1.734478,-5.494041 3.149937,-6.757767c-11.001554,-1.27636 -22.566816,-5.610939 -22.566816,-24.977516c0,-5.519318 1.929609,-10.027657 5.098131,-13.559761c-0.511051,-1.276363 -2.214558,-6.416565 0.486275,-13.376528c0,0 4.159651,-1.358501 13.621857,5.184429c3.952137,-1.121553 8.192322,-1.68075 12.404625,-1.699709c4.209213,0.018959 8.446297,0.578156 12.404629,1.699709c9.462208,-6.539772 13.615665,-5.184429 13.615665,-5.184429c2.700829,6.959963 1.00042,12.100164 0.49247,13.376528c3.168518,3.532104 5.091934,8.040443 5.091934,13.559761c0,19.417122 -11.583847,23.688522 -22.62257,24.93644c1.77784,1.563858 3.391525,4.596802 3.391525,9.310493c0,6.318626 0,12.327637 0,13.989426c0,1.352196 0.799099,2.846542 3.314098,2.35685c19.67395,-6.69458 33.853317,-25.628334 33.853317,-47.948868c0,-27.91251 -22.182755,-50.539496 -49.54726,-50.539496l-0.000001,0z" fill="#988a4d" fill-rule="evenodd" id="svg_1"/>
  <g id="svg_2"/>
  <g id="svg_3"/>
  <g id="svg_4"/>
  <g id="svg_5"/>
  <g id="svg_6"/>
  <g id="svg_7"/>
 </g>
</svg>