<svg width="128" height="128" xmlns="http://www.w3.org/2000/svg">
 <g>
  <title>background</title>
  <rect x="-1" y="-1" width="130" height="130" id="canvas_background" fill="none"/>
 </g>

 <g>
  <title>Layer 1</title>
  <g id="svg_9">
   <g id="svg_2">
    <g id="svg_3">
     <circle cx="63.999999" cy="63.74985" r="63" fill="#988a4d" id="svg_4"/>
    </g>
   </g>
   <g id="Layer_1_1_">
    <g id="svg_5">
     <g id="svg_6">
      <path d="m44.344006,39.305847l10.961998,0l0,30.869995c0,13.860001 -6.678005,18.77401 -17.262001,18.77401c-2.645992,0 -5.922005,-0.378014 -8.064001,-1.13401l1.259998,-8.945992c1.511999,0.503998 3.527998,0.881996 5.670004,0.881996c4.662003,0 7.559994,-2.141998 7.559994,-9.576004l-0.125992,-30.869995l0,0z" fill="#17191f" id="svg_7"/>
      <path d="m65.007996,76.853859c2.898018,1.511986 7.560013,3.023994 12.222,3.023994c5.040001,0 7.686012,-2.142006 7.686012,-5.418007c0,-3.024002 -2.267998,-4.787994 -8.19001,-6.803993c-8.064003,-2.89801 -13.482002,-7.434002 -13.482002,-14.616001c0,-8.190002 7.056,-14.490005 18.522003,-14.490005c5.543999,0 9.576012,1.134007 12.473999,2.52l-2.520004,8.82c-1.889984,-0.882 -5.417992,-2.268002 -10.079987,-2.268002c-4.788017,0 -7.056,2.268002 -7.056,4.662003c0,3.150002 2.645988,4.535999 9.072006,6.930008c8.568001,3.14999 12.599983,7.685993 12.599983,14.615993c0,8.189995 -6.174011,15.120003 -19.655991,15.120003c-5.544006,0 -11.088005,-1.512001 -13.860008,-3.02401l2.267998,-9.071983z" fill="#17191f" id="svg_8"/>
     </g>
    </g>
   </g>
  </g>
 </g>
</svg>