<svg width="500" height="500" xmlns="http://www.w3.org/2000/svg">

 <g>
  <title>background</title>
  <rect fill="none" id="canvas_background" height="102" width="102" y="-1" x="-1"/>
 </g>
 <g>
  <title>Layer 1</title>
  <g id="layer1">
   <g id="layer1-9">
    <path fill="#988a4d" fill-rule="nonzero" id="rect2995-4" d="m50,0c-27.7,0 -50,22.3 -50,50l0,400c0,27.7 22.3,50 50,50l400,0c27.7,0 50,-22.3 50,-50l0,-400c0,-27.7 -22.3,-50 -50,-50l-400,0zm89.90625,105.78125c19.18215,0 34.71875,15.5366 34.71875,34.71875c0,19.18215 -15.5366,34.75 -34.71875,34.75c-19.18215,0 -34.71875,-15.56785 -34.71875,-34.75c0,-19.18215 15.5366,-34.71875 34.71875,-34.71875zm181.875,90.4375c3.92206,0.01397 7.92427,0.19898 13.3125,0.53125c26.18379,1.61467 55.36063,22.07992 56.21875,70.03125c0.70675,39.49279 0.5,102.08095 0.5,125.125l-59.53125,0c0,-23.57471 0.25,-72.27422 0.25,-106.71875c0,-15.67241 -7.03504,-36.75 -32.09375,-36.75c-27.59728,0 -34.3125,25.64431 -34.3125,36.75c0,33.0736 -0.28125,85.75132 -0.28125,106.71875l-59.1875,0c0,-35.34456 0.375,-156.6535 0.375,-190.90625c30.56726,0 45.19087,-0.0625 56.375,-0.0625c0,11.21723 -0.09375,18.72191 -0.09375,26.90625c9.33696,-18.8513 34.83128,-30.65459 45.75,-31.21875c4.97858,-0.25724 8.79668,-0.42025 12.71875,-0.40625zm-211.59375,5.53125l59.34375,0l0,190.0625l-59.34375,0l0,-190.0625z"/>
   </g>
  </g>
 </g>
</svg>