<svg width="128" height="128" xmlns="http://www.w3.org/2000/svg">

 <g>
  <title>background</title>
  <rect fill="none" id="canvas_background" height="402" width="582" y="-1" x="-1"/>
 </g>
 <g>
  <title>Layer 1</title>
  <circle id="svg_1" r="64" fill="#988a4d" cy="64" cx="64"/>
  <g id="svg_2">
   <polygon id="svg_3" points="84.038,36.557 83.836,36.36 83.836,36.043 83.543,35.759 44.504,35.759 43.753,36.486    43.753,36.807 25.085,54.855 25.207,55 63.604,100.509 63.746,100.343 63.974,100.08 102.739,55 102.909,54.802  " fill="#DC4126"/>
   <polygon id="svg_4" points="83.543,35.759 44.504,35.759 43.753,36.486 43.753,55.25 83.836,55.25 83.836,36.043  " fill="#F0553A"/>
   <polygon id="svg_5" points="35.694,55 25.207,55 63.604,100.509 63.746,100.343 46.685,55  " fill="#F0553A"/>
   <polygon id="svg_6" points="81.262,55 63.974,100.08 102.739,55 92.354,55  " fill="#BB3821"/>
   <polygon id="svg_7" points="81.262,55 64.12,55 64.178,54.944 63.872,54.944 63.93,55 46.685,55 63.746,100.343 63.974,100.08     " fill="#DC4126"/>
   <polygon id="svg_8" points="44.011,36.557 35.694,55 46.685,55 46.663,54.944 63.872,54.944 44.433,36.148  " fill="#DC4126"/>
   <polygon id="svg_9" points="44.011,36.557 25.085,54.855 25.207,55 35.694,55  " fill="#F0553A"/>
   <polygon id="svg_10" points="84.038,36.557 83.618,36.148 64.178,54.944 81.284,54.944 81.262,55 92.354,55  " fill="#BB3821"/>
   <polygon id="svg_11" points="84.038,36.557 92.354,55 102.739,55 102.909,54.802  " fill="#DC4126"/>
  </g>
 </g>
</svg>