<svg width="1792" height="1792" xmlns="http://www.w3.org/2000/svg">

 <g>
  <title>background</title>
  <rect fill="none" id="canvas_background" height="102" width="102" y="-1" x="-1"/>
 </g>
 <g>
  <title>Layer 1</title>
  <path fill="#988a4d" id="svg_1" d="m832,1344l0,-1024q0,-14 -9,-23t-23,-9l-480,0q-14,0 -23,9t-9,23l0,1024q0,14 9,23t23,9l480,0q14,0 23,-9t9,-23zm672,-384l0,-640q0,-14 -9,-23t-23,-9l-480,0q-14,0 -23,9t-9,23l0,640q0,14 9,23t23,9l480,0q14,0 23,-9t9,-23zm160,-768l0,1408q0,26 -19,45t-45,19l-1408,0q-26,0 -45,-19t-19,-45l0,-1408q0,-26 19,-45t45,-19l1408,0q26,0 45,19t19,45z"/>
 </g>
</svg>